solid OpenSCAD_Model
  facet normal -1 3.48631e-32 -2.22045e-16
    outer loop
      vertex -10 -4.47736 4.97261
      vertex -10 -3.96044 4.89074
      vertex -10 -5 5
    endloop
  endfacet
  facet normal -1 3.48631e-32 -2.22045e-16
    outer loop
      vertex -10 -5 5
      vertex -10 -3.96044 4.89074
      vertex -10 -3.45492 4.75528
    endloop
  endfacet
  facet normal -1 3.48631e-32 -2.22045e-16
    outer loop
      vertex -10 -5 5
      vertex -10 -3.45492 4.75528
      vertex -10 -2.96632 4.56773
    endloop
  endfacet
  facet normal -1 3.48631e-32 -2.22045e-16
    outer loop
      vertex -10 -5 5
      vertex -10 -2.96632 4.56773
      vertex -10 -2.5 4.33013
    endloop
  endfacet
  facet normal -1 3.48631e-32 -2.22045e-16
    outer loop
      vertex -10 -5 5
      vertex -10 -2.5 4.33013
      vertex -10 -2.06107 4.04508
    endloop
  endfacet
  facet normal -1 3.48631e-32 -2.22045e-16
    outer loop
      vertex -10 -5 5
      vertex -10 -2.06107 4.04508
      vertex -10 -1.65435 3.71572
    endloop
  endfacet
  facet normal -1 3.48631e-32 -2.22045e-16
    outer loop
      vertex -10 -5 5
      vertex -10 -1.65435 3.71572
      vertex -10 -1.28428 3.34565
    endloop
  endfacet
  facet normal -1 3.48631e-32 -2.22045e-16
    outer loop
      vertex -10 -5 5
      vertex -10 -1.28428 3.34565
      vertex -10 -0.954915 2.93893
    endloop
  endfacet
  facet normal -1 3.48631e-32 -2.22045e-16
    outer loop
      vertex -10 -5 5
      vertex -10 -0.954915 2.93893
      vertex -10 -0.669873 2.5
    endloop
  endfacet
  facet normal -1 3.48631e-32 -2.22045e-16
    outer loop
      vertex -10 -5 5
      vertex -10 -0.669873 2.5
      vertex -10 -0.432273 2.03368
    endloop
  endfacet
  facet normal -1 3.48631e-32 -2.22045e-16
    outer loop
      vertex -10 -5 5
      vertex -10 -0.432273 2.03368
      vertex -10 -0.244717 1.54508
    endloop
  endfacet
  facet normal -1 3.48631e-32 -2.22045e-16
    outer loop
      vertex -10 -5 5
      vertex -10 -0.244717 1.54508
      vertex -10 -0.109262 1.03956
    endloop
  endfacet
  facet normal -1 3.48631e-32 -2.22045e-16
    outer loop
      vertex -10 -5 5
      vertex -10 -0.109262 1.03956
      vertex -10 -0.027391 0.522642
    endloop
  endfacet
  facet normal -1 3.48631e-32 -2.22045e-16
    outer loop
      vertex -10 -5 5
      vertex -10 -0.027391 0.522642
      vertex -10 0 -2.22045e-15
    endloop
  endfacet
  facet normal -1 3.48631e-32 -2.22045e-16
    outer loop
      vertex -10 -5 5
      vertex -10 0 -2.22045e-15
      vertex -10 -0.027391 -0.522642
    endloop
  endfacet
  facet normal -1 3.48631e-32 -2.22045e-16
    outer loop
      vertex -10 -5 5
      vertex -10 -0.027391 -0.522642
      vertex -10 -0.109262 -1.03956
    endloop
  endfacet
  facet normal -1 3.48631e-32 -2.22045e-16
    outer loop
      vertex -10 -5 5
      vertex -10 -0.109262 -1.03956
      vertex -10 -0.244717 -1.54509
    endloop
  endfacet
  facet normal -1 3.48631e-32 -2.22045e-16
    outer loop
      vertex -10 -5 5
      vertex -10 -0.244717 -1.54509
      vertex -10 -0.432273 -2.03368
    endloop
  endfacet
  facet normal -1 3.48631e-32 -2.22045e-16
    outer loop
      vertex -10 -5 5
      vertex -10 -0.432273 -2.03368
      vertex -10 -0.669873 -2.5
    endloop
  endfacet
  facet normal -1 3.48631e-32 -2.22045e-16
    outer loop
      vertex -10 -5 5
      vertex -10 -0.669873 -2.5
      vertex -10 -0.954915 -2.93893
    endloop
  endfacet
  facet normal -1 3.48631e-32 -2.22045e-16
    outer loop
      vertex -10 -5 5
      vertex -10 -0.954915 -2.93893
      vertex -10 -1.28428 -3.34565
    endloop
  endfacet
  facet normal -1 3.48631e-32 -2.22045e-16
    outer loop
      vertex -10 -5 5
      vertex -10 -1.28428 -3.34565
      vertex -10 -1.65435 -3.71572
    endloop
  endfacet
  facet normal -1 3.48631e-32 -2.22045e-16
    outer loop
      vertex -10 -5 5
      vertex -10 -1.65435 -3.71572
      vertex -10 -2.06107 -4.04509
    endloop
  endfacet
  facet normal -1 3.48631e-32 -2.22045e-16
    outer loop
      vertex -10 -5 5
      vertex -10 -2.06107 -4.04509
      vertex -10 -2.5 -4.33013
    endloop
  endfacet
  facet normal -1 3.48631e-32 -2.22045e-16
    outer loop
      vertex -10 -5 5
      vertex -10 -2.5 -4.33013
      vertex -10 -2.96632 -4.56773
    endloop
  endfacet
  facet normal -1 3.48631e-32 -2.22045e-16
    outer loop
      vertex -10 -5 5
      vertex -10 -2.96632 -4.56773
      vertex -10 -3.45491 -4.75528
    endloop
  endfacet
  facet normal -1 3.48631e-32 -2.22045e-16
    outer loop
      vertex -10 -5 5
      vertex -10 -3.45491 -4.75528
      vertex -10 -3.96044 -4.89074
    endloop
  endfacet
  facet normal -1 3.48631e-32 -2.22045e-16
    outer loop
      vertex -10 -5 5
      vertex -10 -3.96044 -4.89074
      vertex -10 -4.47736 -4.97261
    endloop
  endfacet
  facet normal -1 3.48631e-32 -2.22045e-16
    outer loop
      vertex -10 -5 5
      vertex -10 -4.47736 -4.97261
      vertex -10 -5 -5
    endloop
  endfacet
  facet normal -1 3.48631e-32 -2.22045e-16
    outer loop
      vertex -10 -5 5
      vertex -10 -5 -5
      vertex -10 -5.52264 -4.97261
    endloop
  endfacet
  facet normal -1 3.48631e-32 -2.22045e-16
    outer loop
      vertex -10 -5 5
      vertex -10 -5.52264 -4.97261
      vertex -10 -6.03956 -4.89074
    endloop
  endfacet
  facet normal -1 3.48631e-32 -2.22045e-16
    outer loop
      vertex -10 -5 5
      vertex -10 -6.03956 -4.89074
      vertex -10 -6.54508 -4.75528
    endloop
  endfacet
  facet normal -1 3.48631e-32 -2.22045e-16
    outer loop
      vertex -10 -5 5
      vertex -10 -6.54508 -4.75528
      vertex -10 -7.03368 -4.56773
    endloop
  endfacet
  facet normal -1 3.48631e-32 -2.22045e-16
    outer loop
      vertex -10 -5 5
      vertex -10 -7.03368 -4.56773
      vertex -10 -7.5 -4.33013
    endloop
  endfacet
  facet normal -1 3.48631e-32 -2.22045e-16
    outer loop
      vertex -10 -5 5
      vertex -10 -7.5 -4.33013
      vertex -10 -7.93893 -4.04509
    endloop
  endfacet
  facet normal -1 3.48631e-32 -2.22045e-16
    outer loop
      vertex -10 -5 5
      vertex -10 -7.93893 -4.04509
      vertex -10 -8.34565 -3.71572
    endloop
  endfacet
  facet normal -1 3.48631e-32 -2.22045e-16
    outer loop
      vertex -10 -5 5
      vertex -10 -8.34565 -3.71572
      vertex -10 -8.71572 -3.34565
    endloop
  endfacet
  facet normal -1 3.48631e-32 -2.22045e-16
    outer loop
      vertex -10 -5 5
      vertex -10 -8.71572 -3.34565
      vertex -10 -9.04508 -2.93893
    endloop
  endfacet
  facet normal -1 3.48631e-32 -2.22045e-16
    outer loop
      vertex -10 -5 5
      vertex -10 -9.04508 -2.93893
      vertex -10 -9.33013 -2.5
    endloop
  endfacet
  facet normal -1 3.48631e-32 -2.22045e-16
    outer loop
      vertex -10 -5 5
      vertex -10 -9.33013 -2.5
      vertex -10 -9.56773 -2.03368
    endloop
  endfacet
  facet normal -1 3.48631e-32 -2.22045e-16
    outer loop
      vertex -10 -5 5
      vertex -10 -9.56773 -2.03368
      vertex -10 -9.75528 -1.54509
    endloop
  endfacet
  facet normal -1 3.48631e-32 -2.22045e-16
    outer loop
      vertex -10 -5 5
      vertex -10 -9.75528 -1.54509
      vertex -10 -9.89074 -1.03956
    endloop
  endfacet
  facet normal -1 3.48631e-32 -2.22045e-16
    outer loop
      vertex -10 -5 5
      vertex -10 -9.89074 -1.03956
      vertex -10 -9.97261 -0.522642
    endloop
  endfacet
  facet normal -1 3.48631e-32 -2.22045e-16
    outer loop
      vertex -10 -5 5
      vertex -10 -9.97261 -0.522642
      vertex -10 -10 -3.79054e-15
    endloop
  endfacet
  facet normal -1 3.48631e-32 -2.22045e-16
    outer loop
      vertex -10 -5 5
      vertex -10 -10 -3.79054e-15
      vertex -10 -9.97261 0.522642
    endloop
  endfacet
  facet normal -1 3.48631e-32 -2.22045e-16
    outer loop
      vertex -10 -5 5
      vertex -10 -9.97261 0.522642
      vertex -10 -9.89074 1.03956
    endloop
  endfacet
  facet normal -1 3.48631e-32 -2.22045e-16
    outer loop
      vertex -10 -5 5
      vertex -10 -9.89074 1.03956
      vertex -10 -9.75528 1.54508
    endloop
  endfacet
  facet normal -1 3.48631e-32 -2.22045e-16
    outer loop
      vertex -10 -5 5
      vertex -10 -9.75528 1.54508
      vertex -10 -9.56773 2.03368
    endloop
  endfacet
  facet normal -1 3.48631e-32 -2.22045e-16
    outer loop
      vertex -10 -5 5
      vertex -10 -9.56773 2.03368
      vertex -10 -9.33013 2.5
    endloop
  endfacet
  facet normal -1 3.48631e-32 -2.22045e-16
    outer loop
      vertex -10 -5 5
      vertex -10 -9.33013 2.5
      vertex -10 -9.04508 2.93893
    endloop
  endfacet
  facet normal -1 3.48631e-32 -2.22045e-16
    outer loop
      vertex -10 -5 5
      vertex -10 -9.04508 2.93893
      vertex -10 -8.71572 3.34565
    endloop
  endfacet
  facet normal -1 3.48631e-32 -2.22045e-16
    outer loop
      vertex -10 -5 5
      vertex -10 -8.71572 3.34565
      vertex -10 -8.34565 3.71572
    endloop
  endfacet
  facet normal -1 3.48631e-32 -2.22045e-16
    outer loop
      vertex -10 -5 5
      vertex -10 -8.34565 3.71572
      vertex -10 -7.93893 4.04508
    endloop
  endfacet
  facet normal -1 3.48631e-32 -2.22045e-16
    outer loop
      vertex -10 -5 5
      vertex -10 -7.93893 4.04508
      vertex -10 -7.5 4.33013
    endloop
  endfacet
  facet normal -1 3.48631e-32 -2.22045e-16
    outer loop
      vertex -10 -5 5
      vertex -10 -7.5 4.33013
      vertex -10 -7.03368 4.56773
    endloop
  endfacet
  facet normal -1 3.48631e-32 -2.22045e-16
    outer loop
      vertex -10 -5 5
      vertex -10 -7.03368 4.56773
      vertex -10 -6.54509 4.75528
    endloop
  endfacet
  facet normal -1 3.48631e-32 -2.22045e-16
    outer loop
      vertex -10 -5 5
      vertex -10 -6.54509 4.75528
      vertex -10 -6.03956 4.89074
    endloop
  endfacet
  facet normal -1 3.48631e-32 -2.22045e-16
    outer loop
      vertex -10 -5 5
      vertex -10 -6.03956 4.89074
      vertex -10 -5.52264 4.97261
    endloop
  endfacet
  facet normal 2.2174e-16 0.0523369 -0.998629
    outer loop
      vertex 10 -4.47736 -4.97261
      vertex 10 -5 -5
      vertex -10 -4.47736 -4.97261
    endloop
  endfacet
  facet normal 2.2174e-16 0.0523369 -0.998629
    outer loop
      vertex -10 -4.47736 -4.97261
      vertex 10 -5 -5
      vertex -10 -5 -5
    endloop
  endfacet
  facet normal 2.19311e-16 0.156434 -0.987688
    outer loop
      vertex 10 -3.96044 -4.89074
      vertex 10 -4.47736 -4.97261
      vertex -10 -3.96044 -4.89074
    endloop
  endfacet
  facet normal 2.19311e-16 0.156434 -0.987688
    outer loop
      vertex -10 -3.96044 -4.89074
      vertex 10 -4.47736 -4.97261
      vertex -10 -4.47736 -4.97261
    endloop
  endfacet
  facet normal -2.2174e-16 0.0523369 0.998629
    outer loop
      vertex -10 -5 5
      vertex 10 -5 5
      vertex 10 -4.47736 4.97261
    endloop
  endfacet
  facet normal -2.2174e-16 0.0523369 0.998629
    outer loop
      vertex -10 -4.47736 4.97261
      vertex -10 -5 5
      vertex 10 -4.47736 4.97261
    endloop
  endfacet
  facet normal -2.2174e-16 -0.0523369 0.998629
    outer loop
      vertex -10 -5 5
      vertex -10 -5.52264 4.97261
      vertex 10 -5.52264 4.97261
    endloop
  endfacet
  facet normal -2.2174e-16 -0.0523369 0.998629
    outer loop
      vertex 10 -5 5
      vertex -10 -5 5
      vertex 10 -5.52264 4.97261
    endloop
  endfacet
  facet normal -2.19311e-16 -0.156434 0.987688
    outer loop
      vertex -10 -5.52264 4.97261
      vertex -10 -6.03956 4.89074
      vertex 10 -6.03956 4.89074
    endloop
  endfacet
  facet normal -2.19311e-16 -0.156434 0.987688
    outer loop
      vertex 10 -5.52264 4.97261
      vertex -10 -5.52264 4.97261
      vertex 10 -6.03956 4.89074
    endloop
  endfacet
  facet normal -2.14479e-16 -0.258818 0.965926
    outer loop
      vertex -10 -6.03956 4.89074
      vertex -10 -6.54509 4.75528
      vertex 10 -6.54509 4.75528
    endloop
  endfacet
  facet normal -2.14479e-16 -0.258818 0.965926
    outer loop
      vertex 10 -6.03956 4.89074
      vertex -10 -6.03956 4.89074
      vertex 10 -6.54509 4.75528
    endloop
  endfacet
  facet normal -2.07296e-16 -0.358369 0.93358
    outer loop
      vertex -10 -6.54509 4.75528
      vertex -10 -7.03368 4.56773
      vertex 10 -7.03368 4.56773
    endloop
  endfacet
  facet normal -2.07296e-16 -0.358369 0.93358
    outer loop
      vertex 10 -6.54509 4.75528
      vertex -10 -6.54509 4.75528
      vertex 10 -7.03368 4.56773
    endloop
  endfacet
  facet normal -1.97843e-16 -0.45399 0.891007
    outer loop
      vertex -10 -7.03368 4.56773
      vertex -10 -7.5 4.33013
      vertex 10 -7.5 4.33013
    endloop
  endfacet
  facet normal -1.97843e-16 -0.45399 0.891007
    outer loop
      vertex 10 -7.03368 4.56773
      vertex -10 -7.03368 4.56773
      vertex 10 -7.5 4.33013
    endloop
  endfacet
  facet normal -1.86222e-16 -0.544639 0.83867
    outer loop
      vertex -10 -7.5 4.33013
      vertex -10 -7.93893 4.04508
      vertex 10 -7.93893 4.04508
    endloop
  endfacet
  facet normal -1.86222e-16 -0.544639 0.83867
    outer loop
      vertex 10 -7.5 4.33013
      vertex -10 -7.5 4.33013
      vertex 10 -7.93893 4.04508
    endloop
  endfacet
  facet normal -1.72561e-16 -0.62932 0.777146
    outer loop
      vertex -10 -7.93893 4.04508
      vertex -10 -8.34565 3.71572
      vertex 10 -8.34565 3.71572
    endloop
  endfacet
  facet normal -1.72561e-16 -0.62932 0.777146
    outer loop
      vertex 10 -7.93893 4.04508
      vertex -10 -7.93893 4.04508
      vertex 10 -8.34565 3.71572
    endloop
  endfacet
  facet normal -1.57009e-16 -0.707107 0.707107
    outer loop
      vertex -10 -8.34565 3.71572
      vertex -10 -8.71572 3.34565
      vertex 10 -8.71572 3.34565
    endloop
  endfacet
  facet normal -1.57009e-16 -0.707107 0.707107
    outer loop
      vertex 10 -8.34565 3.71572
      vertex -10 -8.34565 3.71572
      vertex 10 -8.71572 3.34565
    endloop
  endfacet
  facet normal -1.39737e-16 -0.777146 0.62932
    outer loop
      vertex -10 -8.71572 3.34565
      vertex -10 -9.04508 2.93893
      vertex 10 -9.04508 2.93893
    endloop
  endfacet
  facet normal -1.39737e-16 -0.777146 0.62932
    outer loop
      vertex 10 -8.71572 3.34565
      vertex -10 -8.71572 3.34565
      vertex 10 -9.04508 2.93893
    endloop
  endfacet
  facet normal -1.20934e-16 -0.83867 0.544639
    outer loop
      vertex -10 -9.04508 2.93893
      vertex -10 -9.33013 2.5
      vertex 10 -9.33013 2.5
    endloop
  endfacet
  facet normal -1.20934e-16 -0.83867 0.544639
    outer loop
      vertex 10 -9.04508 2.93893
      vertex -10 -9.04508 2.93893
      vertex 10 -9.33013 2.5
    endloop
  endfacet
  facet normal -1.00806e-16 -0.891007 0.45399
    outer loop
      vertex -10 -9.33013 2.5
      vertex -10 -9.56773 2.03368
      vertex 10 -9.56773 2.03368
    endloop
  endfacet
  facet normal -1.00806e-16 -0.891007 0.45399
    outer loop
      vertex 10 -9.33013 2.5
      vertex -10 -9.33013 2.5
      vertex 10 -9.56773 2.03368
    endloop
  endfacet
  facet normal -7.9574e-17 -0.93358 0.358369
    outer loop
      vertex -10 -9.56773 2.03368
      vertex -10 -9.75528 1.54508
      vertex 10 -9.75528 1.54509
    endloop
  endfacet
  facet normal -7.9574e-17 -0.93358 0.358369
    outer loop
      vertex 10 -9.56773 2.03368
      vertex -10 -9.56773 2.03368
      vertex 10 -9.75528 1.54509
    endloop
  endfacet
  facet normal -5.74692e-17 -0.965926 0.258818
    outer loop
      vertex -10 -9.75528 1.54508
      vertex -10 -9.89074 1.03956
      vertex 10 -9.89074 1.03956
    endloop
  endfacet
  facet normal -5.74692e-17 -0.965926 0.258818
    outer loop
      vertex 10 -9.75528 1.54509
      vertex -10 -9.75528 1.54508
      vertex 10 -9.89074 1.03956
    endloop
  endfacet
  facet normal -3.47352e-17 -0.987688 0.156434
    outer loop
      vertex -10 -9.89074 1.03956
      vertex -10 -9.97261 0.522642
      vertex 10 -9.97261 0.522642
    endloop
  endfacet
  facet normal -3.47352e-17 -0.987688 0.156434
    outer loop
      vertex 10 -9.89074 1.03956
      vertex -10 -9.89074 1.03956
      vertex 10 -9.97261 0.522642
    endloop
  endfacet
  facet normal -1.16211e-17 -0.998629 0.0523369
    outer loop
      vertex -10 -9.97261 0.522642
      vertex -10 -10 -3.79054e-15
      vertex 10 -10 6.50354e-16
    endloop
  endfacet
  facet normal -1.16211e-17 -0.998629 0.0523369
    outer loop
      vertex 10 -9.97261 0.522642
      vertex -10 -9.97261 0.522642
      vertex 10 -10 6.50354e-16
    endloop
  endfacet
  facet normal 1.16211e-17 -0.998629 -0.0523369
    outer loop
      vertex -10 -10 -3.79054e-15
      vertex -10 -9.97261 -0.522642
      vertex 10 -9.97261 -0.522642
    endloop
  endfacet
  facet normal 1.16211e-17 -0.998629 -0.0523369
    outer loop
      vertex 10 -10 6.50354e-16
      vertex -10 -10 -3.79054e-15
      vertex 10 -9.97261 -0.522642
    endloop
  endfacet
  facet normal 3.47352e-17 -0.987688 -0.156434
    outer loop
      vertex -10 -9.97261 -0.522642
      vertex -10 -9.89074 -1.03956
      vertex 10 -9.89074 -1.03956
    endloop
  endfacet
  facet normal 3.47352e-17 -0.987688 -0.156434
    outer loop
      vertex 10 -9.97261 -0.522642
      vertex -10 -9.97261 -0.522642
      vertex 10 -9.89074 -1.03956
    endloop
  endfacet
  facet normal 5.74692e-17 -0.965926 -0.258818
    outer loop
      vertex -10 -9.89074 -1.03956
      vertex -10 -9.75528 -1.54509
      vertex 10 -9.75528 -1.54508
    endloop
  endfacet
  facet normal 5.74692e-17 -0.965926 -0.258818
    outer loop
      vertex 10 -9.89074 -1.03956
      vertex -10 -9.89074 -1.03956
      vertex 10 -9.75528 -1.54508
    endloop
  endfacet
  facet normal 7.9574e-17 -0.93358 -0.358369
    outer loop
      vertex -10 -9.75528 -1.54509
      vertex -10 -9.56773 -2.03368
      vertex 10 -9.56773 -2.03368
    endloop
  endfacet
  facet normal 7.9574e-17 -0.93358 -0.358369
    outer loop
      vertex 10 -9.75528 -1.54508
      vertex -10 -9.75528 -1.54509
      vertex 10 -9.56773 -2.03368
    endloop
  endfacet
  facet normal 1.00806e-16 -0.891007 -0.45399
    outer loop
      vertex -10 -9.56773 -2.03368
      vertex -10 -9.33013 -2.5
      vertex 10 -9.33013 -2.5
    endloop
  endfacet
  facet normal 1.00806e-16 -0.891007 -0.45399
    outer loop
      vertex 10 -9.56773 -2.03368
      vertex -10 -9.56773 -2.03368
      vertex 10 -9.33013 -2.5
    endloop
  endfacet
  facet normal 1.20934e-16 -0.83867 -0.544639
    outer loop
      vertex -10 -9.33013 -2.5
      vertex -10 -9.04508 -2.93893
      vertex 10 -9.04508 -2.93893
    endloop
  endfacet
  facet normal 1.20934e-16 -0.83867 -0.544639
    outer loop
      vertex 10 -9.33013 -2.5
      vertex -10 -9.33013 -2.5
      vertex 10 -9.04508 -2.93893
    endloop
  endfacet
  facet normal 1.39737e-16 -0.777146 -0.62932
    outer loop
      vertex -10 -9.04508 -2.93893
      vertex -10 -8.71572 -3.34565
      vertex 10 -8.71572 -3.34565
    endloop
  endfacet
  facet normal 1.39737e-16 -0.777146 -0.62932
    outer loop
      vertex 10 -9.04508 -2.93893
      vertex -10 -9.04508 -2.93893
      vertex 10 -8.71572 -3.34565
    endloop
  endfacet
  facet normal 1.57009e-16 -0.707107 -0.707107
    outer loop
      vertex -10 -8.34565 -3.71572
      vertex 10 -8.34565 -3.71572
      vertex -10 -8.71572 -3.34565
    endloop
  endfacet
  facet normal 1.57009e-16 -0.707107 -0.707107
    outer loop
      vertex -10 -8.71572 -3.34565
      vertex 10 -8.34565 -3.71572
      vertex 10 -8.71572 -3.34565
    endloop
  endfacet
  facet normal 1.72561e-16 -0.62932 -0.777146
    outer loop
      vertex -10 -7.93893 -4.04509
      vertex 10 -7.93893 -4.04508
      vertex -10 -8.34565 -3.71572
    endloop
  endfacet
  facet normal 1.72561e-16 -0.62932 -0.777146
    outer loop
      vertex -10 -8.34565 -3.71572
      vertex 10 -7.93893 -4.04508
      vertex 10 -8.34565 -3.71572
    endloop
  endfacet
  facet normal 1.86222e-16 -0.544639 -0.83867
    outer loop
      vertex -10 -7.5 -4.33013
      vertex 10 -7.5 -4.33013
      vertex -10 -7.93893 -4.04509
    endloop
  endfacet
  facet normal 1.86222e-16 -0.544639 -0.83867
    outer loop
      vertex -10 -7.93893 -4.04509
      vertex 10 -7.5 -4.33013
      vertex 10 -7.93893 -4.04508
    endloop
  endfacet
  facet normal 1.97843e-16 -0.45399 -0.891007
    outer loop
      vertex -10 -7.03368 -4.56773
      vertex 10 -7.03368 -4.56773
      vertex -10 -7.5 -4.33013
    endloop
  endfacet
  facet normal 1.97843e-16 -0.45399 -0.891007
    outer loop
      vertex -10 -7.5 -4.33013
      vertex 10 -7.03368 -4.56773
      vertex 10 -7.5 -4.33013
    endloop
  endfacet
  facet normal 2.07296e-16 -0.358369 -0.93358
    outer loop
      vertex -10 -6.54508 -4.75528
      vertex 10 -6.54508 -4.75528
      vertex -10 -7.03368 -4.56773
    endloop
  endfacet
  facet normal 2.07296e-16 -0.358369 -0.93358
    outer loop
      vertex -10 -7.03368 -4.56773
      vertex 10 -6.54508 -4.75528
      vertex 10 -7.03368 -4.56773
    endloop
  endfacet
  facet normal 2.14479e-16 -0.258818 -0.965926
    outer loop
      vertex -10 -6.03956 -4.89074
      vertex 10 -6.03956 -4.89074
      vertex -10 -6.54508 -4.75528
    endloop
  endfacet
  facet normal 2.14479e-16 -0.258818 -0.965926
    outer loop
      vertex -10 -6.54508 -4.75528
      vertex 10 -6.03956 -4.89074
      vertex 10 -6.54508 -4.75528
    endloop
  endfacet
  facet normal 2.19311e-16 -0.156434 -0.987688
    outer loop
      vertex -10 -5.52264 -4.97261
      vertex 10 -5.52264 -4.97261
      vertex -10 -6.03956 -4.89074
    endloop
  endfacet
  facet normal 2.19311e-16 -0.156434 -0.987688
    outer loop
      vertex -10 -6.03956 -4.89074
      vertex 10 -5.52264 -4.97261
      vertex 10 -6.03956 -4.89074
    endloop
  endfacet
  facet normal 2.2174e-16 -0.0523369 -0.998629
    outer loop
      vertex -10 -5 -5
      vertex 10 -5 -5
      vertex -10 -5.52264 -4.97261
    endloop
  endfacet
  facet normal 2.2174e-16 -0.0523369 -0.998629
    outer loop
      vertex -10 -5.52264 -4.97261
      vertex 10 -5 -5
      vertex 10 -5.52264 -4.97261
    endloop
  endfacet
  facet normal 2.14479e-16 0.258818 -0.965926
    outer loop
      vertex 10 -3.45491 -4.75528
      vertex 10 -3.96044 -4.89074
      vertex -10 -3.45491 -4.75528
    endloop
  endfacet
  facet normal 2.14479e-16 0.258818 -0.965926
    outer loop
      vertex -10 -3.45491 -4.75528
      vertex 10 -3.96044 -4.89074
      vertex -10 -3.96044 -4.89074
    endloop
  endfacet
  facet normal 2.07296e-16 0.358369 -0.93358
    outer loop
      vertex 10 -2.96632 -4.56773
      vertex 10 -3.45491 -4.75528
      vertex -10 -2.96632 -4.56773
    endloop
  endfacet
  facet normal 2.07296e-16 0.358369 -0.93358
    outer loop
      vertex -10 -2.96632 -4.56773
      vertex 10 -3.45491 -4.75528
      vertex -10 -3.45491 -4.75528
    endloop
  endfacet
  facet normal 1.97843e-16 0.45399 -0.891007
    outer loop
      vertex 10 -2.5 -4.33013
      vertex 10 -2.96632 -4.56773
      vertex -10 -2.5 -4.33013
    endloop
  endfacet
  facet normal 1.97843e-16 0.45399 -0.891007
    outer loop
      vertex -10 -2.5 -4.33013
      vertex 10 -2.96632 -4.56773
      vertex -10 -2.96632 -4.56773
    endloop
  endfacet
  facet normal 1.86222e-16 0.544639 -0.83867
    outer loop
      vertex 10 -2.06107 -4.04508
      vertex 10 -2.5 -4.33013
      vertex -10 -2.06107 -4.04509
    endloop
  endfacet
  facet normal 1.86222e-16 0.544639 -0.83867
    outer loop
      vertex -10 -2.06107 -4.04509
      vertex 10 -2.5 -4.33013
      vertex -10 -2.5 -4.33013
    endloop
  endfacet
  facet normal 1.72561e-16 0.62932 -0.777146
    outer loop
      vertex 10 -1.65435 -3.71572
      vertex 10 -2.06107 -4.04508
      vertex -10 -1.65435 -3.71572
    endloop
  endfacet
  facet normal 1.72561e-16 0.62932 -0.777146
    outer loop
      vertex -10 -1.65435 -3.71572
      vertex 10 -2.06107 -4.04508
      vertex -10 -2.06107 -4.04509
    endloop
  endfacet
  facet normal 1.57009e-16 0.707107 -0.707107
    outer loop
      vertex 10 -1.28428 -3.34565
      vertex 10 -1.65435 -3.71572
      vertex -10 -1.28428 -3.34565
    endloop
  endfacet
  facet normal 1.57009e-16 0.707107 -0.707107
    outer loop
      vertex -10 -1.28428 -3.34565
      vertex 10 -1.65435 -3.71572
      vertex -10 -1.65435 -3.71572
    endloop
  endfacet
  facet normal 1.39737e-16 0.777146 -0.62932
    outer loop
      vertex 10 -0.954915 -2.93893
      vertex 10 -1.28428 -3.34565
      vertex -10 -0.954915 -2.93893
    endloop
  endfacet
  facet normal 1.39737e-16 0.777146 -0.62932
    outer loop
      vertex -10 -0.954915 -2.93893
      vertex 10 -1.28428 -3.34565
      vertex -10 -1.28428 -3.34565
    endloop
  endfacet
  facet normal 1.20934e-16 0.83867 -0.544639
    outer loop
      vertex 10 -0.669873 -2.5
      vertex 10 -0.954915 -2.93893
      vertex -10 -0.669873 -2.5
    endloop
  endfacet
  facet normal 1.20934e-16 0.83867 -0.544639
    outer loop
      vertex -10 -0.669873 -2.5
      vertex 10 -0.954915 -2.93893
      vertex -10 -0.954915 -2.93893
    endloop
  endfacet
  facet normal 1.00806e-16 0.891007 -0.45399
    outer loop
      vertex 10 -0.432273 -2.03368
      vertex 10 -0.669873 -2.5
      vertex -10 -0.432273 -2.03368
    endloop
  endfacet
  facet normal 1.00806e-16 0.891007 -0.45399
    outer loop
      vertex -10 -0.432273 -2.03368
      vertex 10 -0.669873 -2.5
      vertex -10 -0.669873 -2.5
    endloop
  endfacet
  facet normal 7.9574e-17 0.93358 -0.358369
    outer loop
      vertex 10 -0.244717 -1.54508
      vertex 10 -0.432273 -2.03368
      vertex -10 -0.244717 -1.54509
    endloop
  endfacet
  facet normal 7.9574e-17 0.93358 -0.358369
    outer loop
      vertex -10 -0.244717 -1.54509
      vertex 10 -0.432273 -2.03368
      vertex -10 -0.432273 -2.03368
    endloop
  endfacet
  facet normal 5.74692e-17 0.965926 -0.258818
    outer loop
      vertex 10 -0.109262 -1.03956
      vertex 10 -0.244717 -1.54508
      vertex -10 -0.109262 -1.03956
    endloop
  endfacet
  facet normal 5.74692e-17 0.965926 -0.258818
    outer loop
      vertex -10 -0.109262 -1.03956
      vertex 10 -0.244717 -1.54508
      vertex -10 -0.244717 -1.54509
    endloop
  endfacet
  facet normal 3.47352e-17 0.987688 -0.156434
    outer loop
      vertex 10 -0.027391 -0.522642
      vertex 10 -0.109262 -1.03956
      vertex -10 -0.027391 -0.522642
    endloop
  endfacet
  facet normal 3.47352e-17 0.987688 -0.156434
    outer loop
      vertex -10 -0.027391 -0.522642
      vertex 10 -0.109262 -1.03956
      vertex -10 -0.109262 -1.03956
    endloop
  endfacet
  facet normal 1.16211e-17 0.998629 -0.0523369
    outer loop
      vertex 10 0 2.22045e-15
      vertex 10 -0.027391 -0.522642
      vertex -10 0 -2.22045e-15
    endloop
  endfacet
  facet normal 1.16211e-17 0.998629 -0.0523369
    outer loop
      vertex -10 0 -2.22045e-15
      vertex 10 -0.027391 -0.522642
      vertex -10 -0.027391 -0.522642
    endloop
  endfacet
  facet normal -1.16211e-17 0.998629 0.0523369
    outer loop
      vertex 10 -0.027391 0.522642
      vertex 10 0 2.22045e-15
      vertex -10 -0.027391 0.522642
    endloop
  endfacet
  facet normal -1.16211e-17 0.998629 0.0523369
    outer loop
      vertex -10 -0.027391 0.522642
      vertex 10 0 2.22045e-15
      vertex -10 0 -2.22045e-15
    endloop
  endfacet
  facet normal -3.47352e-17 0.987688 0.156434
    outer loop
      vertex 10 -0.109262 1.03956
      vertex 10 -0.027391 0.522642
      vertex -10 -0.109262 1.03956
    endloop
  endfacet
  facet normal -3.47352e-17 0.987688 0.156434
    outer loop
      vertex -10 -0.109262 1.03956
      vertex 10 -0.027391 0.522642
      vertex -10 -0.027391 0.522642
    endloop
  endfacet
  facet normal -5.74692e-17 0.965926 0.258818
    outer loop
      vertex 10 -0.244717 1.54509
      vertex 10 -0.109262 1.03956
      vertex -10 -0.244717 1.54508
    endloop
  endfacet
  facet normal -5.74692e-17 0.965926 0.258818
    outer loop
      vertex -10 -0.244717 1.54508
      vertex 10 -0.109262 1.03956
      vertex -10 -0.109262 1.03956
    endloop
  endfacet
  facet normal -7.9574e-17 0.93358 0.358369
    outer loop
      vertex 10 -0.432273 2.03368
      vertex 10 -0.244717 1.54509
      vertex -10 -0.432273 2.03368
    endloop
  endfacet
  facet normal -7.9574e-17 0.93358 0.358369
    outer loop
      vertex -10 -0.432273 2.03368
      vertex 10 -0.244717 1.54509
      vertex -10 -0.244717 1.54508
    endloop
  endfacet
  facet normal -1.00806e-16 0.891007 0.45399
    outer loop
      vertex 10 -0.669873 2.5
      vertex 10 -0.432273 2.03368
      vertex -10 -0.669873 2.5
    endloop
  endfacet
  facet normal -1.00806e-16 0.891007 0.45399
    outer loop
      vertex -10 -0.669873 2.5
      vertex 10 -0.432273 2.03368
      vertex -10 -0.432273 2.03368
    endloop
  endfacet
  facet normal -1.20934e-16 0.83867 0.544639
    outer loop
      vertex 10 -0.954915 2.93893
      vertex 10 -0.669873 2.5
      vertex -10 -0.954915 2.93893
    endloop
  endfacet
  facet normal -1.20934e-16 0.83867 0.544639
    outer loop
      vertex -10 -0.954915 2.93893
      vertex 10 -0.669873 2.5
      vertex -10 -0.669873 2.5
    endloop
  endfacet
  facet normal -1.39737e-16 0.777146 0.62932
    outer loop
      vertex 10 -1.28428 3.34565
      vertex 10 -0.954915 2.93893
      vertex -10 -1.28428 3.34565
    endloop
  endfacet
  facet normal -1.39737e-16 0.777146 0.62932
    outer loop
      vertex -10 -1.28428 3.34565
      vertex 10 -0.954915 2.93893
      vertex -10 -0.954915 2.93893
    endloop
  endfacet
  facet normal -1.57009e-16 0.707107 0.707107
    outer loop
      vertex -10 -1.65435 3.71572
      vertex 10 -1.65435 3.71572
      vertex 10 -1.28428 3.34565
    endloop
  endfacet
  facet normal -1.57009e-16 0.707107 0.707107
    outer loop
      vertex -10 -1.28428 3.34565
      vertex -10 -1.65435 3.71572
      vertex 10 -1.28428 3.34565
    endloop
  endfacet
  facet normal -1.72561e-16 0.62932 0.777146
    outer loop
      vertex -10 -2.06107 4.04508
      vertex 10 -2.06107 4.04509
      vertex 10 -1.65435 3.71572
    endloop
  endfacet
  facet normal -1.72561e-16 0.62932 0.777146
    outer loop
      vertex -10 -1.65435 3.71572
      vertex -10 -2.06107 4.04508
      vertex 10 -1.65435 3.71572
    endloop
  endfacet
  facet normal -1.86222e-16 0.544639 0.83867
    outer loop
      vertex -10 -2.5 4.33013
      vertex 10 -2.5 4.33013
      vertex 10 -2.06107 4.04509
    endloop
  endfacet
  facet normal -1.86222e-16 0.544639 0.83867
    outer loop
      vertex -10 -2.06107 4.04508
      vertex -10 -2.5 4.33013
      vertex 10 -2.06107 4.04509
    endloop
  endfacet
  facet normal -1.97843e-16 0.45399 0.891007
    outer loop
      vertex -10 -2.96632 4.56773
      vertex 10 -2.96632 4.56773
      vertex 10 -2.5 4.33013
    endloop
  endfacet
  facet normal -1.97843e-16 0.45399 0.891007
    outer loop
      vertex -10 -2.5 4.33013
      vertex -10 -2.96632 4.56773
      vertex 10 -2.5 4.33013
    endloop
  endfacet
  facet normal -2.07296e-16 0.358369 0.93358
    outer loop
      vertex -10 -3.45492 4.75528
      vertex 10 -3.45492 4.75528
      vertex 10 -2.96632 4.56773
    endloop
  endfacet
  facet normal -2.07296e-16 0.358369 0.93358
    outer loop
      vertex -10 -2.96632 4.56773
      vertex -10 -3.45492 4.75528
      vertex 10 -2.96632 4.56773
    endloop
  endfacet
  facet normal -2.14479e-16 0.258818 0.965926
    outer loop
      vertex -10 -3.96044 4.89074
      vertex 10 -3.96044 4.89074
      vertex 10 -3.45492 4.75528
    endloop
  endfacet
  facet normal -2.14479e-16 0.258818 0.965926
    outer loop
      vertex -10 -3.45492 4.75528
      vertex -10 -3.96044 4.89074
      vertex 10 -3.45492 4.75528
    endloop
  endfacet
  facet normal -2.19311e-16 0.156434 0.987688
    outer loop
      vertex -10 -4.47736 4.97261
      vertex 10 -4.47736 4.97261
      vertex 10 -3.96044 4.89074
    endloop
  endfacet
  facet normal -2.19311e-16 0.156434 0.987688
    outer loop
      vertex -10 -3.96044 4.89074
      vertex -10 -4.47736 4.97261
      vertex 10 -3.96044 4.89074
    endloop
  endfacet
  facet normal 1 -3.48631e-32 2.22045e-16
    outer loop
      vertex 10 -5 5
      vertex 10 -5.52264 4.97261
      vertex 10 -6.03956 4.89074
    endloop
  endfacet
  facet normal 1 -3.48631e-32 2.22045e-16
    outer loop
      vertex 10 -7.03368 4.56773
      vertex 10 -5 5
      vertex 10 -6.54509 4.75528
    endloop
  endfacet
  facet normal 1 -3.48631e-32 2.22045e-16
    outer loop
      vertex 10 -6.54509 4.75528
      vertex 10 -5 5
      vertex 10 -6.03956 4.89074
    endloop
  endfacet
  facet normal 1 -3.48631e-32 2.22045e-16
    outer loop
      vertex 10 -7.5 4.33013
      vertex 10 -5 5
      vertex 10 -7.03368 4.56773
    endloop
  endfacet
  facet normal 1 -3.48631e-32 2.22045e-16
    outer loop
      vertex 10 -7.93893 4.04508
      vertex 10 -5 5
      vertex 10 -7.5 4.33013
    endloop
  endfacet
  facet normal 1 -3.48631e-32 2.22045e-16
    outer loop
      vertex 10 -8.34565 3.71572
      vertex 10 -5 5
      vertex 10 -7.93893 4.04508
    endloop
  endfacet
  facet normal 1 -3.48631e-32 2.22045e-16
    outer loop
      vertex 10 -8.71572 3.34565
      vertex 10 -5 5
      vertex 10 -8.34565 3.71572
    endloop
  endfacet
  facet normal 1 -3.48631e-32 2.22045e-16
    outer loop
      vertex 10 -9.04508 2.93893
      vertex 10 -5 5
      vertex 10 -8.71572 3.34565
    endloop
  endfacet
  facet normal 1 -3.48631e-32 2.22045e-16
    outer loop
      vertex 10 -9.33013 2.5
      vertex 10 -5 5
      vertex 10 -9.04508 2.93893
    endloop
  endfacet
  facet normal 1 -3.48631e-32 2.22045e-16
    outer loop
      vertex 10 -9.56773 2.03368
      vertex 10 -5 5
      vertex 10 -9.33013 2.5
    endloop
  endfacet
  facet normal 1 -3.48631e-32 2.22045e-16
    outer loop
      vertex 10 -9.75528 1.54509
      vertex 10 -5 5
      vertex 10 -9.56773 2.03368
    endloop
  endfacet
  facet normal 1 -3.48631e-32 2.22045e-16
    outer loop
      vertex 10 -9.89074 1.03956
      vertex 10 -5 5
      vertex 10 -9.75528 1.54509
    endloop
  endfacet
  facet normal 1 -3.48631e-32 2.22045e-16
    outer loop
      vertex 10 -9.97261 0.522642
      vertex 10 -5 5
      vertex 10 -9.89074 1.03956
    endloop
  endfacet
  facet normal 1 -3.48631e-32 2.22045e-16
    outer loop
      vertex 10 -10 6.50354e-16
      vertex 10 -5 5
      vertex 10 -9.97261 0.522642
    endloop
  endfacet
  facet normal 1 -3.48631e-32 2.22045e-16
    outer loop
      vertex 10 -9.97261 -0.522642
      vertex 10 -5 5
      vertex 10 -10 6.50354e-16
    endloop
  endfacet
  facet normal 1 -3.48631e-32 2.22045e-16
    outer loop
      vertex 10 -9.89074 -1.03956
      vertex 10 -5 5
      vertex 10 -9.97261 -0.522642
    endloop
  endfacet
  facet normal 1 -3.48631e-32 2.22045e-16
    outer loop
      vertex 10 -9.75528 -1.54508
      vertex 10 -5 5
      vertex 10 -9.89074 -1.03956
    endloop
  endfacet
  facet normal 1 -3.48631e-32 2.22045e-16
    outer loop
      vertex 10 -9.56773 -2.03368
      vertex 10 -5 5
      vertex 10 -9.75528 -1.54508
    endloop
  endfacet
  facet normal 1 -3.48631e-32 2.22045e-16
    outer loop
      vertex 10 -9.33013 -2.5
      vertex 10 -5 5
      vertex 10 -9.56773 -2.03368
    endloop
  endfacet
  facet normal 1 -3.48631e-32 2.22045e-16
    outer loop
      vertex 10 -9.04508 -2.93893
      vertex 10 -5 5
      vertex 10 -9.33013 -2.5
    endloop
  endfacet
  facet normal 1 -3.48631e-32 2.22045e-16
    outer loop
      vertex 10 -8.71572 -3.34565
      vertex 10 -5 5
      vertex 10 -9.04508 -2.93893
    endloop
  endfacet
  facet normal 1 -3.48631e-32 2.22045e-16
    outer loop
      vertex 10 -8.34565 -3.71572
      vertex 10 -5 5
      vertex 10 -8.71572 -3.34565
    endloop
  endfacet
  facet normal 1 -3.48631e-32 2.22045e-16
    outer loop
      vertex 10 -7.93893 -4.04508
      vertex 10 -5 5
      vertex 10 -8.34565 -3.71572
    endloop
  endfacet
  facet normal 1 -3.48631e-32 2.22045e-16
    outer loop
      vertex 10 -7.5 -4.33013
      vertex 10 -5 5
      vertex 10 -7.93893 -4.04508
    endloop
  endfacet
  facet normal 1 -3.48631e-32 2.22045e-16
    outer loop
      vertex 10 -7.03368 -4.56773
      vertex 10 -5 5
      vertex 10 -7.5 -4.33013
    endloop
  endfacet
  facet normal 1 -3.48631e-32 2.22045e-16
    outer loop
      vertex 10 -6.54508 -4.75528
      vertex 10 -5 5
      vertex 10 -7.03368 -4.56773
    endloop
  endfacet
  facet normal 1 -3.48631e-32 2.22045e-16
    outer loop
      vertex 10 -6.03956 -4.89074
      vertex 10 -5 5
      vertex 10 -6.54508 -4.75528
    endloop
  endfacet
  facet normal 1 -3.48631e-32 2.22045e-16
    outer loop
      vertex 10 -5.52264 -4.97261
      vertex 10 -5 5
      vertex 10 -6.03956 -4.89074
    endloop
  endfacet
  facet normal 1 -3.48631e-32 2.22045e-16
    outer loop
      vertex 10 -5 -5
      vertex 10 -5 5
      vertex 10 -5.52264 -4.97261
    endloop
  endfacet
  facet normal 1 -3.48631e-32 2.22045e-16
    outer loop
      vertex 10 -4.47736 -4.97261
      vertex 10 -5 5
      vertex 10 -5 -5
    endloop
  endfacet
  facet normal 1 -3.48631e-32 2.22045e-16
    outer loop
      vertex 10 -3.96044 -4.89074
      vertex 10 -5 5
      vertex 10 -4.47736 -4.97261
    endloop
  endfacet
  facet normal 1 -3.48631e-32 2.22045e-16
    outer loop
      vertex 10 -3.45491 -4.75528
      vertex 10 -5 5
      vertex 10 -3.96044 -4.89074
    endloop
  endfacet
  facet normal 1 -3.48631e-32 2.22045e-16
    outer loop
      vertex 10 -2.96632 -4.56773
      vertex 10 -5 5
      vertex 10 -3.45491 -4.75528
    endloop
  endfacet
  facet normal 1 -3.48631e-32 2.22045e-16
    outer loop
      vertex 10 -2.5 -4.33013
      vertex 10 -5 5
      vertex 10 -2.96632 -4.56773
    endloop
  endfacet
  facet normal 1 -3.48631e-32 2.22045e-16
    outer loop
      vertex 10 -2.06107 -4.04508
      vertex 10 -5 5
      vertex 10 -2.5 -4.33013
    endloop
  endfacet
  facet normal 1 -3.48631e-32 2.22045e-16
    outer loop
      vertex 10 -1.65435 -3.71572
      vertex 10 -5 5
      vertex 10 -2.06107 -4.04508
    endloop
  endfacet
  facet normal 1 -3.48631e-32 2.22045e-16
    outer loop
      vertex 10 -1.28428 -3.34565
      vertex 10 -5 5
      vertex 10 -1.65435 -3.71572
    endloop
  endfacet
  facet normal 1 -3.48631e-32 2.22045e-16
    outer loop
      vertex 10 -0.954915 -2.93893
      vertex 10 -5 5
      vertex 10 -1.28428 -3.34565
    endloop
  endfacet
  facet normal 1 -3.48631e-32 2.22045e-16
    outer loop
      vertex 10 -0.669873 -2.5
      vertex 10 -5 5
      vertex 10 -0.954915 -2.93893
    endloop
  endfacet
  facet normal 1 -3.48631e-32 2.22045e-16
    outer loop
      vertex 10 -0.432273 -2.03368
      vertex 10 -5 5
      vertex 10 -0.669873 -2.5
    endloop
  endfacet
  facet normal 1 -3.48631e-32 2.22045e-16
    outer loop
      vertex 10 -0.244717 -1.54508
      vertex 10 -5 5
      vertex 10 -0.432273 -2.03368
    endloop
  endfacet
  facet normal 1 -3.48631e-32 2.22045e-16
    outer loop
      vertex 10 -0.109262 -1.03956
      vertex 10 -5 5
      vertex 10 -0.244717 -1.54508
    endloop
  endfacet
  facet normal 1 -3.48631e-32 2.22045e-16
    outer loop
      vertex 10 -0.027391 -0.522642
      vertex 10 -5 5
      vertex 10 -0.109262 -1.03956
    endloop
  endfacet
  facet normal 1 -3.48631e-32 2.22045e-16
    outer loop
      vertex 10 0 2.22045e-15
      vertex 10 -5 5
      vertex 10 -0.027391 -0.522642
    endloop
  endfacet
  facet normal 1 -3.48631e-32 2.22045e-16
    outer loop
      vertex 10 -0.027391 0.522642
      vertex 10 -5 5
      vertex 10 0 2.22045e-15
    endloop
  endfacet
  facet normal 1 -3.48631e-32 2.22045e-16
    outer loop
      vertex 10 -0.109262 1.03956
      vertex 10 -5 5
      vertex 10 -0.027391 0.522642
    endloop
  endfacet
  facet normal 1 -3.48631e-32 2.22045e-16
    outer loop
      vertex 10 -0.244717 1.54509
      vertex 10 -5 5
      vertex 10 -0.109262 1.03956
    endloop
  endfacet
  facet normal 1 -3.48631e-32 2.22045e-16
    outer loop
      vertex 10 -0.432273 2.03368
      vertex 10 -5 5
      vertex 10 -0.244717 1.54509
    endloop
  endfacet
  facet normal 1 -3.48631e-32 2.22045e-16
    outer loop
      vertex 10 -0.669873 2.5
      vertex 10 -5 5
      vertex 10 -0.432273 2.03368
    endloop
  endfacet
  facet normal 1 -3.48631e-32 2.22045e-16
    outer loop
      vertex 10 -0.954915 2.93893
      vertex 10 -5 5
      vertex 10 -0.669873 2.5
    endloop
  endfacet
  facet normal 1 -3.48631e-32 2.22045e-16
    outer loop
      vertex 10 -1.28428 3.34565
      vertex 10 -5 5
      vertex 10 -0.954915 2.93893
    endloop
  endfacet
  facet normal 1 -3.48631e-32 2.22045e-16
    outer loop
      vertex 10 -1.65435 3.71572
      vertex 10 -5 5
      vertex 10 -1.28428 3.34565
    endloop
  endfacet
  facet normal 1 -3.48631e-32 2.22045e-16
    outer loop
      vertex 10 -2.06107 4.04509
      vertex 10 -5 5
      vertex 10 -1.65435 3.71572
    endloop
  endfacet
  facet normal 1 -3.48631e-32 2.22045e-16
    outer loop
      vertex 10 -2.5 4.33013
      vertex 10 -5 5
      vertex 10 -2.06107 4.04509
    endloop
  endfacet
  facet normal 1 -3.48631e-32 2.22045e-16
    outer loop
      vertex 10 -2.96632 4.56773
      vertex 10 -5 5
      vertex 10 -2.5 4.33013
    endloop
  endfacet
  facet normal 1 -3.48631e-32 2.22045e-16
    outer loop
      vertex 10 -3.45492 4.75528
      vertex 10 -5 5
      vertex 10 -2.96632 4.56773
    endloop
  endfacet
  facet normal 1 -3.48631e-32 2.22045e-16
    outer loop
      vertex 10 -3.96044 4.89074
      vertex 10 -5 5
      vertex 10 -3.45492 4.75528
    endloop
  endfacet
  facet normal 1 -3.48631e-32 2.22045e-16
    outer loop
      vertex 10 -4.47736 4.97261
      vertex 10 -5 5
      vertex 10 -3.96044 4.89074
    endloop
  endfacet
endsolid OpenSCAD_Model
