solid vcg
  facet normal -4.544965e-01  6.004407e-01  6.579543e-01
    outer loop
      vertex  -1.969354e+00  2.615331e+00  9.768851e-01
      vertex  -1.369020e+00  3.494665e+00  5.891101e-01
      vertex  -3.032205e+00  2.267741e+00  5.599031e-01
    endloop
  endfacet
  facet normal -6.142480e-01 -3.938832e-01 -6.837803e-01
    outer loop
      vertex  -2.361107e+00 -2.295527e+00 -9.931098e-01
      vertex  -2.649226e+00 -2.648489e+00 -5.309698e-01
      vertex  -3.634048e+00 -9.951537e-01 -5.986754e-01
    endloop
  endfacet
  facet normal -7.210664e-02 -1.256058e-02  9.973178e-01
    outer loop
      vertex   9.567092e-02  6.420310e-01  9.046733e-02
      vertex  -4.864895e-01 -1.962133e-01  3.781965e-02
      vertex   7.099493e-01 -2.028509e-02  1.265386e-01
    endloop
  endfacet
  facet normal  6.697797e-02  9.773777e-02 -9.929559e-01
    outer loop
      vertex  -5.791382e-01 -8.507969e-03 -7.326310e-02
      vertex   2.291558e-01  3.380121e-01  1.536722e-02
      vertex  -5.570404e-02 -6.217474e-01 -9.831770e-02
    endloop
  endfacet
  facet normal -4.394666e-01 -5.692850e-01  6.948264e-01
    outer loop
      vertex  -9.761924e-01 -3.612643e+00  6.332421e-01
      vertex  -1.274546e+00 -2.918180e+00  1.013525e+00
      vertex  -3.185022e+00 -2.291345e+00  3.187580e-01
    endloop
  endfacet
  facet normal  5.331706e-01 -4.945965e-01  6.863697e-01
    outer loop
      vertex   2.664902e+00 -1.841758e+00  9.921873e-01
      vertex   1.972628e+00 -3.190437e+00  5.580900e-01
      vertex   3.300452e+00 -2.162349e+00  2.674769e-01
    endloop
  endfacet
  facet normal  5.413801e-01  4.691778e-01 -6.976960e-01
    outer loop
      vertex   2.295931e+00  2.341676e+00 -9.562318e-01
      vertex   2.190526e+00  3.033622e+00 -5.727101e-01
      vertex   3.285829e+00  2.128702e+00 -3.313340e-01
    endloop
  endfacet
  facet normal -3.708686e-01  2.559753e-01 -8.927111e-01
    outer loop
      vertex   2.179415e+00 -9.419052e-01 -9.497843e-01
      vertex   1.535614e+00 -2.176190e+00 -1.036241e+00
      vertex   9.008061e-01 -6.112447e-01 -3.237847e-01
    endloop
  endfacet
  facet normal -1.208474e-01  3.702843e-01 -9.210241e-01
    outer loop
      vertex   9.008061e-01 -6.112447e-01 -3.237847e-01
      vertex   1.535614e+00 -2.176190e+00 -1.036241e+00
      vertex   1.376624e-01 -2.477766e+00 -9.740605e-01
    endloop
  endfacet
  facet normal -4.171465e-01  1.697821e-01  8.928398e-01
    outer loop
      vertex   2.651109e+00 -2.111118e-01  1.069762e+00
      vertex   7.099493e-01 -2.028509e-02  1.265386e-01
      vertex   1.853798e+00 -1.859732e+00  1.010749e+00
    endloop
  endfacet
  facet normal -2.145776e-01  3.984095e-01 -8.917546e-01
    outer loop
      vertex   9.008061e-01 -6.112447e-01 -3.237847e-01
      vertex   1.376624e-01 -2.477766e+00 -9.740605e-01
      vertex  -5.570404e-02 -6.217474e-01 -9.831770e-02
    endloop
  endfacet
  facet normal  2.159086e-01 -9.541966e-01  2.071044e-01
    outer loop
      vertex   1.879984e+00 -3.506836e+00 -1.707996e-02
      vertex   7.056371e-01 -3.629672e+00  6.412435e-01
      vertex  -4.804757e-05 -3.928368e+00  7.391419e-04
    endloop
  endfacet
  facet normal -2.275276e-01  1.808685e-01 -9.568269e-01
    outer loop
      vertex   2.291558e-01  3.380121e-01  1.536722e-02
      vertex   9.008061e-01 -6.112447e-01 -3.237847e-01
      vertex  -5.570404e-02 -6.217474e-01 -9.831770e-02
    endloop
  endfacet
  facet normal  3.221226e-01 -8.504323e-01  4.159351e-01
    outer loop
      vertex   1.972628e+00 -3.190437e+00  5.580900e-01
      vertex   7.056371e-01 -3.629672e+00  6.412435e-01
      vertex   1.879984e+00 -3.506836e+00 -1.707996e-02
    endloop
  endfacet
  facet normal  2.390017e-02 -4.730375e-02  9.985946e-01
    outer loop
      vertex   2.664902e+00 -1.841758e+00  9.921873e-01
      vertex   2.651109e+00 -2.111118e-01  1.069762e+00
      vertex   1.853798e+00 -1.859732e+00  1.010749e+00
    endloop
  endfacet
  facet normal  8.769967e-01 -2.842807e-01  3.873775e-01
    outer loop
      vertex   3.653221e+00 -5.230910e-01  6.718157e-01
      vertex   3.300452e+00 -2.162349e+00  2.674769e-01
      vertex   3.800570e+00 -1.005379e+00 -1.570416e-02
    endloop
  endfacet
  facet normal -1.045458e-01  2.221299e-01  9.693960e-01
    outer loop
      vertex   7.099493e-01 -2.028509e-02  1.265386e-01
      vertex  -4.864895e-01 -1.962133e-01  3.781965e-02
      vertex   2.674098e-01 -9.655048e-01  2.954023e-01
    endloop
  endfacet
  facet normal -4.297729e-01  2.574254e-02 -9.025699e-01
    outer loop
      vertex   2.394063e+00  7.585171e-01 -1.003494e+00
      vertex   2.179415e+00 -9.419052e-01 -9.497843e-01
      vertex   2.291558e-01  3.380121e-01  1.536722e-02
    endloop
  endfacet
  facet normal -4.371931e-01  1.196137e-02 -8.992881e-01
    outer loop
      vertex   2.291558e-01  3.380121e-01  1.536722e-02
      vertex   2.179415e+00 -9.419052e-01 -9.497843e-01
      vertex   9.008061e-01 -6.112447e-01 -3.237847e-01
    endloop
  endfacet
  facet normal -4.434471e-01 -1.216414e-01  8.880078e-01
    outer loop
      vertex   2.043661e+00  1.547556e+00  1.007325e+00
      vertex   7.099493e-01 -2.028509e-02  1.265386e-01
      vertex   2.651109e+00 -2.111118e-01  1.069762e+00
    endloop
  endfacet
  facet normal -3.175139e-01 -2.445880e-01  9.161668e-01
    outer loop
      vertex   2.043661e+00  1.547556e+00  1.007325e+00
      vertex   9.567092e-02  6.420310e-01  9.046733e-02
      vertex   7.099493e-01 -2.028509e-02  1.265386e-01
    endloop
  endfacet
  facet normal  9.728438e-01 -5.067910e-02 -2.258461e-01
    outer loop
      vertex   3.895503e+00  7.151347e-01  7.146312e-03
      vertex   3.800570e+00 -1.005379e+00 -1.570416e-02
      vertex   3.735198e+00  3.506679e-01 -6.015908e-01
    endloop
  endfacet
  facet normal -2.057071e-01 -4.416784e-01  8.732724e-01
    outer loop
      vertex   2.043661e+00  1.547556e+00  1.007325e+00
      vertex   1.315097e-02  2.442673e+00  9.817467e-01
      vertex   9.567092e-02  6.420310e-01  9.046733e-02
    endloop
  endfacet
  facet normal -1.118650e-02 -9.014606e-01  4.327166e-01
    outer loop
      vertex   7.056371e-01 -3.629672e+00  6.412435e-01
      vertex  -9.761924e-01 -3.612643e+00  6.332421e-01
      vertex  -4.804757e-05 -3.928368e+00  7.391419e-04
    endloop
  endfacet
  facet normal  2.068753e-01  9.406769e-01 -2.689417e-01
    outer loop
      vertex   1.874370e+00  3.508912e+00 -2.230150e-02
      vertex   8.993331e-01  3.504084e+00 -7.892085e-01
      vertex  -4.840462e-05  3.927725e+00  7.391169e-04
    endloop
  endfacet
  facet normal  1.130780e-01  9.142503e-02  9.893709e-01
    outer loop
      vertex   2.043661e+00  1.547556e+00  1.007325e+00
      vertex   2.687143e+00  2.326319e+00  8.618162e-01
      vertex   8.049400e-01  3.090184e+00  1.006352e+00
    endloop
  endfacet
  facet normal  2.693598e-01  8.819149e-01  3.868740e-01
    outer loop
      vertex   1.748469e+00  3.305907e+00  5.281259e-01
      vertex   1.874370e+00  3.508912e+00 -2.230150e-02
      vertex   3.171002e-01  3.670249e+00  6.941617e-01
    endloop
  endfacet
  facet normal  7.524762e-02  2.215824e-01 -9.722341e-01
    outer loop
      vertex   8.993331e-01  3.504084e+00 -7.892085e-01
      vertex   1.569447e+00  2.253659e+00 -1.022329e+00
      vertex  -8.268454e-01  3.040990e+00 -1.028353e+00
    endloop
  endfacet
  facet normal  6.344008e-01 -1.094647e-01 -7.652145e-01
    outer loop
      vertex   3.225748e+00  3.557782e-01 -1.024681e+00
      vertex   3.735198e+00  3.506679e-01 -6.015908e-01
      vertex   3.388722e+00 -1.524987e+00 -6.205221e-01
    endloop
  endfacet
  facet normal -1.003297e-01  2.348842e-02 -9.946769e-01
    outer loop
      vertex   3.225748e+00  3.557782e-01 -1.024681e+00
      vertex   2.525712e+00 -1.938209e+00 -1.008241e+00
      vertex   2.179415e+00 -9.419052e-01 -9.497843e-01
    endloop
  endfacet
  facet normal  1.277002e-01  7.920719e-02  9.886450e-01
    outer loop
      vertex   2.687143e+00  2.326319e+00  8.618162e-01
      vertex   2.043661e+00  1.547556e+00  1.007325e+00
      vertex   2.651109e+00 -2.111118e-01  1.069762e+00
    endloop
  endfacet
  facet normal  4.632708e-01 -1.476347e-01 -8.738330e-01
    outer loop
      vertex   3.225748e+00  3.557782e-01 -1.024681e+00
      vertex   3.388722e+00 -1.524987e+00 -6.205221e-01
      vertex   2.525712e+00 -1.938209e+00 -1.008241e+00
    endloop
  endfacet
  facet normal  8.735941e-01 -4.323187e-01 -2.234586e-01
    outer loop
      vertex   3.300452e+00 -2.162349e+00  2.674769e-01
      vertex   3.388722e+00 -1.524987e+00 -6.205221e-01
      vertex   3.800570e+00 -1.005379e+00 -1.570416e-02
    endloop
  endfacet
  facet normal  2.139471e-01  9.436386e-01  2.525326e-01
    outer loop
      vertex   3.171002e-01  3.670249e+00  6.941617e-01
      vertex   1.874370e+00  3.508912e+00 -2.230150e-02
      vertex  -4.840462e-05  3.927725e+00  7.391169e-04
    endloop
  endfacet
  facet normal  8.737971e-01 -1.567639e-01 -4.603301e-01
    outer loop
      vertex   3.735198e+00  3.506679e-01 -6.015908e-01
      vertex   3.800570e+00 -1.005379e+00 -1.570416e-02
      vertex   3.388722e+00 -1.524987e+00 -6.205221e-01
    endloop
  endfacet
  facet normal  9.673415e-01 -5.665631e-02  2.470639e-01
    outer loop
      vertex   3.895503e+00  7.151347e-01  7.146312e-03
      vertex   3.653221e+00 -5.230910e-01  6.718157e-01
      vertex   3.800570e+00 -1.005379e+00 -1.570416e-02
    endloop
  endfacet
  facet normal  3.576077e-01 -4.135842e-02  9.329557e-01
    outer loop
      vertex   2.651109e+00 -2.111118e-01  1.069762e+00
      vertex   2.664902e+00 -1.841758e+00  9.921873e-01
      vertex   3.653221e+00 -5.230910e-01  6.718157e-01
    endloop
  endfacet
  facet normal  3.815823e-01  4.825500e-02  9.230744e-01
    outer loop
      vertex   3.598773e+00  1.025513e+00  6.133682e-01
      vertex   2.651109e+00 -2.111118e-01  1.069762e+00
      vertex   3.653221e+00 -5.230910e-01  6.718157e-01
    endloop
  endfacet
  facet normal  3.704361e-01  7.976279e-01 -4.759903e-01
    outer loop
      vertex   1.874370e+00  3.508912e+00 -2.230150e-02
      vertex   2.190526e+00  3.033622e+00 -5.727101e-01
      vertex   8.993331e-01  3.504084e+00 -7.892085e-01
    endloop
  endfacet
  facet normal -2.559694e-01  2.848711e-01  9.237576e-01
    outer loop
      vertex   1.853798e+00 -1.859732e+00  1.010749e+00
      vertex   7.099493e-01 -2.028509e-02  1.265386e-01
      vertex   2.674098e-01 -9.655048e-01  2.954023e-01
    endloop
  endfacet
  facet normal -1.643514e-01  4.217526e-01  8.916913e-01
    outer loop
      vertex   1.853798e+00 -1.859732e+00  1.010749e+00
      vertex   2.674098e-01 -9.655048e-01  2.954023e-01
      vertex   1.789450e-01 -2.411699e+00  9.631187e-01
    endloop
  endfacet
  facet normal -3.567956e-01 -3.036538e-01 -8.834542e-01
    outer loop
      vertex   2.394063e+00  7.585171e-01 -1.003494e+00
      vertex   2.291558e-01  3.380121e-01  1.536722e-02
      vertex   8.299063e-01  1.592740e+00 -6.585194e-01
    endloop
  endfacet
  facet normal  2.458153e-03  8.824288e-01 -4.704396e-01
    outer loop
      vertex  -4.840462e-05  3.927725e+00  7.391169e-04
      vertex   8.993331e-01  3.504084e+00 -7.892085e-01
      vertex  -9.373478e-01  3.556642e+00 -7.002185e-01
    endloop
  endfacet
  facet normal  3.163857e-01  4.962922e-01 -8.084517e-01
    outer loop
      vertex   2.190526e+00  3.033622e+00 -5.727101e-01
      vertex   2.295931e+00  2.341676e+00 -9.562318e-01
      vertex   8.993331e-01  3.504084e+00 -7.892085e-01
    endloop
  endfacet
  facet normal  6.259089e-02  2.152323e-01 -9.745550e-01
    outer loop
      vertex   2.295931e+00  2.341676e+00 -9.562318e-01
      vertex   1.569447e+00  2.253659e+00 -1.022329e+00
      vertex   8.993331e-01  3.504084e+00 -7.892085e-01
    endloop
  endfacet
  facet normal  8.165537e-02  7.249328e-02 -9.940207e-01
    outer loop
      vertex   1.569447e+00  2.253659e+00 -1.022329e+00
      vertex   2.295931e+00  2.341676e+00 -9.562318e-01
      vertex   3.225748e+00  3.557782e-01 -1.024681e+00
    endloop
  endfacet
  facet normal -3.015826e-01 -1.781314e-01 -9.366521e-01
    outer loop
      vertex   1.569447e+00  2.253659e+00 -1.022329e+00
      vertex   2.394063e+00  7.585171e-01 -1.003494e+00
      vertex   8.299063e-01  1.592740e+00 -6.585194e-01
    endloop
  endfacet
  facet normal  8.784083e-01  4.291949e-01  2.102156e-01
    outer loop
      vertex   3.285829e+00  2.128702e+00 -3.313340e-01
      vertex   3.598773e+00  1.025513e+00  6.133682e-01
      vertex   3.895503e+00  7.151347e-01  7.146312e-03
    endloop
  endfacet
  facet normal  3.557238e-01  7.131600e-02  9.318662e-01
    outer loop
      vertex   3.598773e+00  1.025513e+00  6.133682e-01
      vertex   2.687143e+00  2.326319e+00  8.618162e-01
      vertex   2.651109e+00 -2.111118e-01  1.069762e+00
    endloop
  endfacet
  facet normal  9.065818e-01  4.770119e-02  4.193257e-01
    outer loop
      vertex   3.598773e+00  1.025513e+00  6.133682e-01
      vertex   3.653221e+00 -5.230910e-01  6.718157e-01
      vertex   3.895503e+00  7.151347e-01  7.146312e-03
    endloop
  endfacet
  facet normal -2.791547e-02 -4.625639e-01 -8.861464e-01
    outer loop
      vertex   8.299063e-01  1.592740e+00 -6.585194e-01
      vertex   2.291558e-01  3.380121e-01  1.536722e-02
      vertex  -8.738204e-01  2.343906e+00 -9.969535e-01
    endloop
  endfacet
  facet normal -2.890097e-01  4.691071e-01 -8.345129e-01
    outer loop
      vertex  -9.373478e-01  3.556642e+00 -7.002185e-01
      vertex  -8.268454e-01  3.040990e+00 -1.028353e+00
      vertex  -2.226629e+00  2.229989e+00 -9.994681e-01
    endloop
  endfacet
  facet normal -2.200364e-01 -9.604514e-01 -1.706377e-01
    outer loop
      vertex  -4.804757e-05 -3.928368e+00  7.391419e-04
      vertex  -1.889264e+00 -3.496608e+00  6.669516e-03
      vertex  -1.052726e+00 -3.573519e+00 -6.391447e-01
    endloop
  endfacet
  facet normal  4.535091e-02  7.482614e-02 -9.961649e-01
    outer loop
      vertex   1.376624e-01 -2.477766e+00 -9.740605e-01
      vertex   5.875451e-01 -3.225811e+00 -1.009768e+00
      vertex  -1.437500e+00 -2.038300e+00 -1.012760e+00
    endloop
  endfacet
  facet normal  2.409398e-01 -3.284242e-01 -9.132828e-01
    outer loop
      vertex  -8.738204e-01  2.343906e+00 -9.969535e-01
      vertex   2.291558e-01  3.380121e-01  1.536722e-02
      vertex  -5.791382e-01 -8.507969e-03 -7.326310e-02
    endloop
  endfacet
  facet normal  4.706750e-01 -2.870695e-02 -8.818396e-01
    outer loop
      vertex  -2.248741e+00  1.186450e+00 -1.003301e+00
      vertex  -5.791382e-01 -8.507969e-03 -7.326310e-02
      vertex  -2.338915e+00 -7.967234e-01 -9.868709e-01
    endloop
  endfacet
  facet normal -8.155580e-01  2.707367e-01  5.114360e-01
    outer loop
      vertex  -3.032205e+00  2.267741e+00  5.599031e-01
      vertex  -3.896902e+00  7.126497e-01  4.232103e-03
      vertex  -3.741356e+00 -4.559551e-02  6.536615e-01
    endloop
  endfacet
  facet normal -2.147074e-01  9.522618e-01 -2.170215e-01
    outer loop
      vertex  -4.840462e-05  3.927725e+00  7.391169e-04
      vertex  -9.373478e-01  3.556642e+00 -7.002185e-01
      vertex  -1.850130e+00  3.517765e+00  3.224377e-02
    endloop
  endfacet
  facet normal  2.747564e-01 -3.214085e-01 -9.062039e-01
    outer loop
      vertex  -8.738204e-01  2.343906e+00 -9.969535e-01
      vertex  -5.791382e-01 -8.507969e-03 -7.326310e-02
      vertex  -2.248741e+00  1.186450e+00 -1.003301e+00
    endloop
  endfacet
  facet normal -8.365751e-01 -2.776717e-01  4.722717e-01
    outer loop
      vertex  -3.741356e+00 -4.559551e-02  6.536615e-01
      vertex  -3.800667e+00 -1.005378e+00 -1.570410e-02
      vertex  -3.185022e+00 -2.291345e+00  3.187580e-01
    endloop
  endfacet
  facet normal -2.573862e-02  5.327567e-01 -8.458770e-01
    outer loop
      vertex   8.993331e-01  3.504084e+00 -7.892085e-01
      vertex  -8.268454e-01  3.040990e+00 -1.028353e+00
      vertex  -9.373478e-01  3.556642e+00 -7.002185e-01
    endloop
  endfacet
  facet normal -9.839571e-01 -5.707761e-02  1.690279e-01
    outer loop
      vertex  -3.741356e+00 -4.559551e-02  6.536615e-01
      vertex  -3.896902e+00  7.126497e-01  4.232103e-03
      vertex  -3.800667e+00 -1.005378e+00 -1.570410e-02
    endloop
  endfacet
  facet normal  4.532557e-01  1.593534e-01  8.770210e-01
    outer loop
      vertex  -4.864895e-01 -1.962133e-01  3.781965e-02
      vertex  -2.355093e+00  1.092791e-01  9.480303e-01
      vertex  -1.828148e+00 -1.748894e+00  1.013326e+00
    endloop
  endfacet
  facet normal  1.102718e-01  4.110590e-01  9.049147e-01
    outer loop
      vertex   2.674098e-01 -9.655048e-01  2.954023e-01
      vertex  -4.864895e-01 -1.962133e-01  3.781965e-02
      vertex   1.789450e-01 -2.411699e+00  9.631187e-01
    endloop
  endfacet
  facet normal -9.244723e-03 -5.084386e-01  8.610485e-01
    outer loop
      vertex   7.056371e-01 -3.629672e+00  6.412435e-01
      vertex   1.007267e+00 -3.024671e+00  1.001728e+00
      vertex  -9.761924e-01 -3.612643e+00  6.332421e-01
    endloop
  endfacet
  facet normal -1.817435e-02 -4.862135e-01  8.736511e-01
    outer loop
      vertex  -9.761924e-01 -3.612643e+00  6.332421e-01
      vertex   1.007267e+00 -3.024671e+00  1.001728e+00
      vertex  -1.274546e+00 -2.918180e+00  1.013525e+00
    endloop
  endfacet
  facet normal  1.614278e-01  4.212278e-01  8.924730e-01
    outer loop
      vertex  -4.864895e-01 -1.962133e-01  3.781965e-02
      vertex  -1.828148e+00 -1.748894e+00  1.013326e+00
      vertex   1.789450e-01 -2.411699e+00  9.631187e-01
    endloop
  endfacet
  facet normal  8.730969e-01  2.811986e-01 -3.982825e-01
    outer loop
      vertex   3.285829e+00  2.128702e+00 -3.313340e-01
      vertex   3.895503e+00  7.151347e-01  7.146312e-03
      vertex   3.735198e+00  3.506679e-01 -6.015908e-01
    endloop
  endfacet
  facet normal -9.227573e-01 -5.989394e-03 -3.853351e-01
    outer loop
      vertex  -3.896902e+00  7.126497e-01  4.232103e-03
      vertex  -3.618317e+00  6.819823e-01 -6.624159e-01
      vertex  -3.634048e+00 -9.951537e-01 -5.986754e-01
    endloop
  endfacet
  facet normal -2.201124e-01 -9.650783e-01  1.420365e-01
    outer loop
      vertex  -4.804757e-05 -3.928368e+00  7.391419e-04
      vertex  -9.761924e-01 -3.612643e+00  6.332421e-01
      vertex  -1.889264e+00 -3.496608e+00  6.669516e-03
    endloop
  endfacet
  facet normal -5.094386e-01  2.819030e-01 -8.130209e-01
    outer loop
      vertex  -3.203802e+00  2.221464e+00 -3.901276e-01
      vertex  -2.226629e+00  2.229989e+00 -9.994681e-01
      vertex  -3.225624e+00  3.690092e-01 -1.018766e+00
    endloop
  endfacet
  facet normal  1.298697e-02  3.397042e-03 -9.999099e-01
    outer loop
      vertex  -2.226629e+00  2.229989e+00 -9.994681e-01
      vertex  -2.248741e+00  1.186450e+00 -1.003301e+00
      vertex  -3.225624e+00  3.690092e-01 -1.018766e+00
    endloop
  endfacet
  facet normal  1.121022e-01  6.662980e-02  9.914603e-01
    outer loop
      vertex  -2.355093e+00  1.092791e-01  9.480303e-01
      vertex  -3.187500e+00  3.649355e-01  1.024968e+00
      vertex  -1.828148e+00 -1.748894e+00  1.013326e+00
    endloop
  endfacet
  facet normal -8.744080e-01  3.025304e-01 -3.793231e-01
    outer loop
      vertex  -3.896902e+00  7.126497e-01  4.232103e-03
      vertex  -3.203802e+00  2.221464e+00 -3.901276e-01
      vertex  -3.618317e+00  6.819823e-01 -6.624159e-01
    endloop
  endfacet
  facet normal -8.857453e-01  4.430570e-01  1.384039e-01
    outer loop
      vertex  -3.032205e+00  2.267741e+00  5.599031e-01
      vertex  -3.203802e+00  2.221464e+00 -3.901276e-01
      vertex  -3.896902e+00  7.126497e-01  4.232103e-03
    endloop
  endfacet
  facet normal -8.124117e-02  4.185136e-01  9.045696e-01
    outer loop
      vertex  -1.969354e+00  2.615331e+00  9.768851e-01
      vertex   8.049400e-01  3.090184e+00  1.006352e+00
      vertex   3.171002e-01  3.670249e+00  6.941617e-01
    endloop
  endfacet
  facet normal  1.029446e-02 -7.515861e-01 -6.595547e-01
    outer loop
      vertex   5.875451e-01 -3.225811e+00 -1.009768e+00
      vertex   9.837657e-01 -3.666279e+00 -5.016545e-01
      vertex  -1.052726e+00 -3.573519e+00 -6.391447e-01
    endloop
  endfacet
  facet normal  1.965930e-03  5.069422e-02  9.987122e-01
    outer loop
      vertex   1.315097e-02  2.442673e+00  9.817467e-01
      vertex  -1.969354e+00  2.615331e+00  9.768851e-01
      vertex  -1.801308e+00  1.854956e+00  1.015151e+00
    endloop
  endfacet
  facet normal -8.028532e-03 -8.800444e-01 -4.748235e-01
    outer loop
      vertex   9.837657e-01 -3.666279e+00 -5.016545e-01
      vertex  -4.804757e-05 -3.928368e+00  7.391419e-04
      vertex  -1.052726e+00 -3.573519e+00 -6.391447e-01
    endloop
  endfacet
  facet normal  2.173101e-01 -9.726631e-01 -8.187087e-02
    outer loop
      vertex   1.879984e+00 -3.506836e+00 -1.707996e-02
      vertex  -4.804757e-05 -3.928368e+00  7.391419e-04
      vertex   9.837657e-01 -3.666279e+00 -5.016545e-01
    endloop
  endfacet
  facet normal -1.194325e-01  9.116867e-01  3.931452e-01
    outer loop
      vertex   3.171002e-01  3.670249e+00  6.941617e-01
      vertex  -4.840462e-05  3.927725e+00  7.391169e-04
      vertex  -1.369020e+00  3.494665e+00  5.891101e-01
    endloop
  endfacet
  facet normal -2.075434e-01  9.534286e-01  2.188597e-01
    outer loop
      vertex  -1.369020e+00  3.494665e+00  5.891101e-01
      vertex  -4.840462e-05  3.927725e+00  7.391169e-04
      vertex  -1.850130e+00  3.517765e+00  3.224377e-02
    endloop
  endfacet
  facet normal  4.100690e-01 -1.645795e-01  8.970825e-01
    outer loop
      vertex  -1.801308e+00  1.854956e+00  1.015151e+00
      vertex  -2.355093e+00  1.092791e-01  9.480303e-01
      vertex  -4.864895e-01 -1.962133e-01  3.781965e-02
    endloop
  endfacet
  facet normal  1.430679e-01  4.344854e-01 -8.892435e-01
    outer loop
      vertex  -5.570404e-02 -6.217474e-01 -9.831770e-02
      vertex   1.376624e-01 -2.477766e+00 -9.740605e-01
      vertex  -1.437500e+00 -2.038300e+00 -1.012760e+00
    endloop
  endfacet
  facet normal -4.229444e-01  2.475657e-01  8.716819e-01
    outer loop
      vertex  -3.032205e+00  2.267741e+00  5.599031e-01
      vertex  -3.187500e+00  3.649355e-01  1.024968e+00
      vertex  -1.969354e+00  2.615331e+00  9.768851e-01
    endloop
  endfacet
  facet normal -1.027987e-01  4.592763e-01  8.823252e-01
    outer loop
      vertex   3.171002e-01  3.670249e+00  6.941617e-01
      vertex  -1.369020e+00  3.494665e+00  5.891101e-01
      vertex  -1.969354e+00  2.615331e+00  9.768851e-01
    endloop
  endfacet
  facet normal -8.463475e-01 -4.702397e-01 -2.501412e-01
    outer loop
      vertex  -3.185022e+00 -2.291345e+00  3.187580e-01
      vertex  -3.800667e+00 -1.005378e+00 -1.570410e-02
      vertex  -3.634048e+00 -9.951537e-01 -5.986754e-01
    endloop
  endfacet
  facet normal  5.547480e-01  2.866603e-01 -7.810764e-01
    outer loop
      vertex   3.285829e+00  2.128702e+00 -3.313340e-01
      vertex   3.225748e+00  3.557782e-01 -1.024681e+00
      vertex   2.295931e+00  2.341676e+00 -9.562318e-01
    endloop
  endfacet
  facet normal  4.022519e-01 -7.737677e-01 -4.893639e-01
    outer loop
      vertex   2.308640e+00 -2.920502e+00 -5.918225e-01
      vertex   1.879984e+00 -3.506836e+00 -1.707996e-02
      vertex   9.837657e-01 -3.666279e+00 -5.016545e-01
    endloop
  endfacet
  facet normal  3.000973e-01  2.932357e-01 -9.077193e-01
    outer loop
      vertex  -5.570404e-02 -6.217474e-01 -9.831770e-02
      vertex  -1.437500e+00 -2.038300e+00 -1.012760e+00
      vertex  -5.791382e-01 -8.507969e-03 -7.326310e-02
    endloop
  endfacet
  facet normal  2.841922e-01 -4.267628e-01 -8.585502e-01
    outer loop
      vertex   2.308640e+00 -2.920502e+00 -5.918225e-01
      vertex   5.875451e-01 -3.225811e+00 -1.009768e+00
      vertex   2.525712e+00 -1.938209e+00 -1.008241e+00
    endloop
  endfacet
  facet normal  4.373216e-02 -6.464548e-02 -9.969496e-01
    outer loop
      vertex   1.535614e+00 -2.176190e+00 -1.036241e+00
      vertex   2.525712e+00 -1.938209e+00 -1.008241e+00
      vertex   5.875451e-01 -3.225811e+00 -1.009768e+00
    endloop
  endfacet
  facet normal -9.600343e-01 -5.058185e-02 -2.752737e-01
    outer loop
      vertex  -3.896902e+00  7.126497e-01  4.232103e-03
      vertex  -3.634048e+00 -9.951537e-01 -5.986754e-01
      vertex  -3.800667e+00 -1.005378e+00 -1.570410e-02
    endloop
  endfacet
  facet normal  5.678099e-03 -4.537913e-02 -9.989537e-01
    outer loop
      vertex  -8.738204e-01  2.343906e+00 -9.969535e-01
      vertex  -2.226629e+00  2.229989e+00 -9.994681e-01
      vertex  -8.268454e-01  3.040990e+00 -1.028353e+00
    endloop
  endfacet
  facet normal  2.859709e-01 -2.565930e-01  9.232446e-01
    outer loop
      vertex   9.567092e-02  6.420310e-01  9.046733e-02
      vertex  -1.801308e+00  1.854956e+00  1.015151e+00
      vertex  -4.864895e-01 -1.962133e-01  3.781965e-02
    endloop
  endfacet
  facet normal -6.811634e-01 -2.142382e-02 -7.318178e-01
    outer loop
      vertex  -3.618317e+00  6.819823e-01 -6.624159e-01
      vertex  -3.225624e+00  3.690092e-01 -1.018766e+00
      vertex  -3.634048e+00 -9.951537e-01 -5.986754e-01
    endloop
  endfacet
  facet normal -3.792704e-02  4.186217e-02  9.984033e-01
    outer loop
      vertex  -1.801308e+00  1.854956e+00  1.015151e+00
      vertex  -1.969354e+00  2.615331e+00  9.768851e-01
      vertex  -3.187500e+00  3.649355e-01  1.024968e+00
    endloop
  endfacet
  facet normal  1.564008e-01 -4.323843e-01  8.880218e-01
    outer loop
      vertex   1.315097e-02  2.442673e+00  9.817467e-01
      vertex  -1.801308e+00  1.854956e+00  1.015151e+00
      vertex   9.567092e-02  6.420310e-01  9.046733e-02
    endloop
  endfacet
  facet normal  2.365606e-02 -9.357479e-03 -9.996763e-01
    outer loop
      vertex  -2.248741e+00  1.186450e+00 -1.003301e+00
      vertex  -2.338915e+00 -7.967234e-01 -9.868709e-01
      vertex  -3.225624e+00  3.690092e-01 -1.018766e+00
    endloop
  endfacet
  facet normal -4.787877e-01 -6.635804e-01  5.748246e-01
    outer loop
      vertex  -3.185022e+00 -2.291345e+00  3.187580e-01
      vertex  -1.889264e+00 -3.496608e+00  6.669516e-03
      vertex  -9.761924e-01 -3.612643e+00  6.332421e-01
    endloop
  endfacet
  facet normal -1.906342e-02 -1.467719e-02  9.997106e-01
    outer loop
      vertex   2.043661e+00  1.547556e+00  1.007325e+00
      vertex   8.049400e-01  3.090184e+00  1.006352e+00
      vertex   1.315097e-02  2.442673e+00  9.817467e-01
    endloop
  endfacet
  facet normal -3.760528e-02 -2.968413e-02  9.988517e-01
    outer loop
      vertex  -2.603533e+00 -1.943062e+00  9.783635e-01
      vertex  -1.828148e+00 -1.748894e+00  1.013326e+00
      vertex  -3.187500e+00  3.649355e-01  1.024968e+00
    endloop
  endfacet
  facet normal  3.457491e-01  2.697622e-01 -8.987135e-01
    outer loop
      vertex  -5.791382e-01 -8.507969e-03 -7.326310e-02
      vertex  -1.437500e+00 -2.038300e+00 -1.012760e+00
      vertex  -2.338915e+00 -7.967234e-01 -9.868709e-01
    endloop
  endfacet
  facet normal -1.257950e-01 -3.823307e-01 -9.154228e-01
    outer loop
      vertex  -1.052726e+00 -3.573519e+00 -6.391447e-01
      vertex  -2.361107e+00 -2.295527e+00 -9.931098e-01
      vertex   5.875451e-01 -3.225811e+00 -1.009768e+00
    endloop
  endfacet
  facet normal -1.394313e-02 -2.629570e-02 -9.995570e-01
    outer loop
      vertex  -2.361107e+00 -2.295527e+00 -9.931098e-01
      vertex  -1.437500e+00 -2.038300e+00 -1.012760e+00
      vertex   5.875451e-01 -3.225811e+00 -1.009768e+00
    endloop
  endfacet
  facet normal  2.427819e-01  6.100983e-01  7.542129e-01
    outer loop
      vertex   3.171002e-01  3.670249e+00  6.941617e-01
      vertex   8.049400e-01  3.090184e+00  1.006352e+00
      vertex   1.748469e+00  3.305907e+00  5.281259e-01
    endloop
  endfacet
  facet normal  2.796484e-01  5.386909e-01  7.947383e-01
    outer loop
      vertex   2.687143e+00  2.326319e+00  8.618162e-01
      vertex   1.748469e+00  3.305907e+00  5.281259e-01
      vertex   8.049400e-01  3.090184e+00  1.006352e+00
    endloop
  endfacet
  facet normal -5.121127e-01  2.814206e-01 -8.115067e-01
    outer loop
      vertex  -3.203802e+00  2.221464e+00 -3.901276e-01
      vertex  -3.225624e+00  3.690092e-01 -1.018766e+00
      vertex  -3.618317e+00  6.819823e-01 -6.624159e-01
    endloop
  endfacet
  facet normal  8.034921e-01  5.019791e-01  3.200273e-01
    outer loop
      vertex   2.687143e+00  2.326319e+00  8.618162e-01
      vertex   3.598773e+00  1.025513e+00  6.133682e-01
      vertex   3.285829e+00  2.128702e+00 -3.313340e-01
    endloop
  endfacet
  facet normal -3.837913e-02 -2.670695e-02 -9.989063e-01
    outer loop
      vertex   2.394063e+00  7.585171e-01 -1.003494e+00
      vertex   3.225748e+00  3.557782e-01 -1.024681e+00
      vertex   2.179415e+00 -9.419052e-01 -9.497843e-01
    endloop
  endfacet
  facet normal -5.204439e-03 -3.161571e-02  9.994866e-01
    outer loop
      vertex  -1.969354e+00  2.615331e+00  9.768851e-01
      vertex   1.315097e-02  2.442673e+00  9.817467e-01
      vertex   8.049400e-01  3.090184e+00  1.006352e+00
    endloop
  endfacet
  facet normal  5.926015e-01  7.022505e-01  3.945473e-01
    outer loop
      vertex   2.687143e+00  2.326319e+00  8.618162e-01
      vertex   1.874370e+00  3.508912e+00 -2.230150e-02
      vertex   1.748469e+00  3.305907e+00  5.281259e-01
    endloop
  endfacet
  facet normal -6.486112e-01 -2.669716e-01  7.127620e-01
    outer loop
      vertex  -3.185022e+00 -2.291345e+00  3.187580e-01
      vertex  -2.603533e+00 -1.943062e+00  9.783635e-01
      vertex  -3.741356e+00 -4.559551e-02  6.536615e-01
    endloop
  endfacet
  facet normal -4.785490e-01 -1.385900e-01  8.670546e-01
    outer loop
      vertex  -3.741356e+00 -4.559551e-02  6.536615e-01
      vertex  -2.603533e+00 -1.943062e+00  9.783635e-01
      vertex  -3.187500e+00  3.649355e-01  1.024968e+00
    endloop
  endfacet
  facet normal -4.030925e-02 -1.891436e-02  9.990082e-01
    outer loop
      vertex  -1.828148e+00 -1.748894e+00  1.013326e+00
      vertex  -2.603533e+00 -1.943062e+00  9.783635e-01
      vertex  -1.274546e+00 -2.918180e+00  1.013525e+00
    endloop
  endfacet
  facet normal -2.619031e-02 -4.594127e-01 -8.878368e-01
    outer loop
      vertex  -8.738204e-01  2.343906e+00 -9.969535e-01
      vertex   1.569447e+00  2.253659e+00 -1.022329e+00
      vertex   8.299063e-01  1.592740e+00 -6.585194e-01
    endloop
  endfacet
  facet normal  2.341941e-02 -2.475758e-02  9.994192e-01
    outer loop
      vertex   1.007267e+00 -3.024671e+00  1.001728e+00
      vertex   2.664902e+00 -1.841758e+00  9.921873e-01
      vertex   1.853798e+00 -1.859732e+00  1.010749e+00
    endloop
  endfacet
  facet normal -5.253117e-01  7.006029e-01  4.829112e-01
    outer loop
      vertex  -1.369020e+00  3.494665e+00  5.891101e-01
      vertex  -1.850130e+00  3.517765e+00  3.224377e-02
      vertex  -3.032205e+00  2.267741e+00  5.599031e-01
    endloop
  endfacet
  facet normal -3.401310e-02  1.697826e-02  9.992772e-01
    outer loop
      vertex   1.007267e+00 -3.024671e+00  1.001728e+00
      vertex   1.853798e+00 -1.859732e+00  1.010749e+00
      vertex   1.789450e-01 -2.411699e+00  9.631187e-01
    endloop
  endfacet
  facet normal -6.536377e-01  2.295994e-01  7.211393e-01
    outer loop
      vertex  -3.741356e+00 -4.559551e-02  6.536615e-01
      vertex  -3.187500e+00  3.649355e-01  1.024968e+00
      vertex  -3.032205e+00  2.267741e+00  5.599031e-01
    endloop
  endfacet
  facet normal  7.312524e-02 -6.147132e-02  9.954266e-01
    outer loop
      vertex  -1.801308e+00  1.854956e+00  1.015151e+00
      vertex  -3.187500e+00  3.649355e-01  1.024968e+00
      vertex  -2.355093e+00  1.092791e-01  9.480303e-01
    endloop
  endfacet
  facet normal  8.631309e-03  7.447278e-02  9.971856e-01
    outer loop
      vertex   1.007267e+00 -3.024671e+00  1.001728e+00
      vertex   1.789450e-01 -2.411699e+00  9.631187e-01
      vertex  -1.274546e+00 -2.918180e+00  1.013525e+00
    endloop
  endfacet
  facet normal  6.421065e-01 -3.110143e-01  7.006919e-01
    outer loop
      vertex   3.653221e+00 -5.230910e-01  6.718157e-01
      vertex   2.664902e+00 -1.841758e+00  9.921873e-01
      vertex   3.300452e+00 -2.162349e+00  2.674769e-01
    endloop
  endfacet
  facet normal -4.842151e-02  1.854918e-02 -9.986547e-01
    outer loop
      vertex   1.376624e-01 -2.477766e+00 -9.740605e-01
      vertex   1.535614e+00 -2.176190e+00 -1.036241e+00
      vertex   5.875451e-01 -3.225811e+00 -1.009768e+00
    endloop
  endfacet
  facet normal  2.876870e-01 -6.012118e-01 -7.455069e-01
    outer loop
      vertex   5.875451e-01 -3.225811e+00 -1.009768e+00
      vertex   2.308640e+00 -2.920502e+00 -5.918225e-01
      vertex   9.837657e-01 -3.666279e+00 -5.016545e-01
    endloop
  endfacet
  facet normal  1.305700e-02  6.309003e-02 -9.979224e-01
    outer loop
      vertex   2.179415e+00 -9.419052e-01 -9.497843e-01
      vertex   2.525712e+00 -1.938209e+00 -1.008241e+00
      vertex   1.535614e+00 -2.176190e+00 -1.036241e+00
    endloop
  endfacet
  facet normal  2.534509e-01 -5.852785e-01  7.702023e-01
    outer loop
      vertex   7.056371e-01 -3.629672e+00  6.412435e-01
      vertex   1.972628e+00 -3.190437e+00  5.580900e-01
      vertex   1.007267e+00 -3.024671e+00  1.001728e+00
    endloop
  endfacet
  facet normal -4.267147e-01 -1.470410e-01 -8.923528e-01
    outer loop
      vertex  -3.225624e+00  3.690092e-01 -1.018766e+00
      vertex  -2.361107e+00 -2.295527e+00 -9.931098e-01
      vertex  -3.634048e+00 -9.951537e-01 -5.986754e-01
    endloop
  endfacet
  facet normal  2.970135e-02  1.423247e-02  9.994575e-01
    outer loop
      vertex   1.789450e-01 -2.411699e+00  9.631187e-01
      vertex  -1.828148e+00 -1.748894e+00  1.013326e+00
      vertex  -1.274546e+00 -2.918180e+00  1.013525e+00
    endloop
  endfacet
  facet normal -1.200711e-02 -4.418724e-02 -9.989511e-01
    outer loop
      vertex  -8.268454e-01  3.040990e+00 -1.028353e+00
      vertex   1.569447e+00  2.253659e+00 -1.022329e+00
      vertex  -8.738204e-01  2.343906e+00 -9.969535e-01
    endloop
  endfacet
  facet normal -4.301186e-02 -3.629974e-02 -9.984149e-01
    outer loop
      vertex   1.569447e+00  2.253659e+00 -1.022329e+00
      vertex   3.225748e+00  3.557782e-01 -1.024681e+00
      vertex   2.394063e+00  7.585171e-01 -1.003494e+00
    endloop
  endfacet
  facet normal -2.252222e-02  4.494957e-03 -9.997362e-01
    outer loop
      vertex  -1.437500e+00 -2.038300e+00 -1.012760e+00
      vertex  -2.361107e+00 -2.295527e+00 -9.931098e-01
      vertex  -2.338915e+00 -7.967234e-01 -9.868709e-01
    endloop
  endfacet
  facet normal  6.170418e-01  2.683870e-01 -7.397484e-01
    outer loop
      vertex   3.735198e+00  3.506679e-01 -6.015908e-01
      vertex   3.225748e+00  3.557782e-01 -1.024681e+00
      vertex   3.285829e+00  2.128702e+00 -3.313340e-01
    endloop
  endfacet
  facet normal  4.061703e-02  3.557703e-03 -9.991685e-01
    outer loop
      vertex  -3.225624e+00  3.690092e-01 -1.018766e+00
      vertex  -2.338915e+00 -7.967234e-01 -9.868709e-01
      vertex  -2.361107e+00 -2.295527e+00 -9.931098e-01
    endloop
  endfacet
  facet normal -8.129886e-01 -4.967066e-01 -3.038619e-01
    outer loop
      vertex  -2.649226e+00 -2.648489e+00 -5.309698e-01
      vertex  -3.185022e+00 -2.291345e+00  3.187580e-01
      vertex  -3.634048e+00 -9.951537e-01 -5.986754e-01
    endloop
  endfacet
  facet normal -4.578347e-01 -7.310014e-01 -5.059885e-01
    outer loop
      vertex  -2.649226e+00 -2.648489e+00 -5.309698e-01
      vertex  -1.052726e+00 -3.573519e+00 -6.391447e-01
      vertex  -1.889264e+00 -3.496608e+00  6.669516e-03
    endloop
  endfacet
  facet normal -4.765924e-01  6.794510e-01 -5.578583e-01
    outer loop
      vertex  -1.850130e+00  3.517765e+00  3.224377e-02
      vertex  -9.373478e-01  3.556642e+00 -7.002185e-01
      vertex  -3.203802e+00  2.221464e+00 -3.901276e-01
    endloop
  endfacet
  facet normal  1.552255e-03  3.639638e-03 -9.999921e-01
    outer loop
      vertex  -2.248741e+00  1.186450e+00 -1.003301e+00
      vertex  -2.226629e+00  2.229989e+00 -9.994681e-01
      vertex  -8.738204e-01  2.343906e+00 -9.969535e-01
    endloop
  endfacet
  facet normal  7.395912e-01 -5.794601e-01 -3.423899e-01
    outer loop
      vertex   3.388722e+00 -1.524987e+00 -6.205221e-01
      vertex   3.300452e+00 -2.162349e+00  2.674769e-01
      vertex   2.308640e+00 -2.920502e+00 -5.918225e-01
    endloop
  endfacet
  facet normal -3.928480e-01 -5.961282e-01 -7.002154e-01
    outer loop
      vertex  -1.052726e+00 -3.573519e+00 -6.391447e-01
      vertex  -2.649226e+00 -2.648489e+00 -5.309698e-01
      vertex  -2.361107e+00 -2.295527e+00 -9.931098e-01
    endloop
  endfacet
  facet normal  6.243839e-01 -7.225024e-01  2.968751e-01
    outer loop
      vertex   1.879984e+00 -3.506836e+00 -1.707996e-02
      vertex   3.300452e+00 -2.162349e+00  2.674769e-01
      vertex   1.972628e+00 -3.190437e+00  5.580900e-01
    endloop
  endfacet
  facet normal  7.048464e-01  6.663273e-01  2.433094e-01
    outer loop
      vertex   1.874370e+00  3.508912e+00 -2.230150e-02
      vertex   2.687143e+00  2.326319e+00  8.618162e-01
      vertex   3.285829e+00  2.128702e+00 -3.313340e-01
    endloop
  endfacet
  facet normal  6.489136e-01  7.192031e-01 -2.483105e-01
    outer loop
      vertex   3.285829e+00  2.128702e+00 -3.313340e-01
      vertex   2.190526e+00  3.033622e+00 -5.727101e-01
      vertex   1.874370e+00  3.508912e+00 -2.230150e-02
    endloop
  endfacet
  facet normal  6.947121e-01 -6.938258e-01 -1.896859e-01
    outer loop
      vertex   1.879984e+00 -3.506836e+00 -1.707996e-02
      vertex   2.308640e+00 -2.920502e+00 -5.918225e-01
      vertex   3.300452e+00 -2.162349e+00  2.674769e-01
    endloop
  endfacet
  facet normal  3.139208e-01 -4.330880e-01  8.449193e-01
    outer loop
      vertex   1.007267e+00 -3.024671e+00  1.001728e+00
      vertex   1.972628e+00 -3.190437e+00  5.580900e-01
      vertex   2.664902e+00 -1.841758e+00  9.921873e-01
    endloop
  endfacet
  facet normal  5.327792e-01 -4.273745e-01 -7.304090e-01
    outer loop
      vertex   3.388722e+00 -1.524987e+00 -6.205221e-01
      vertex   2.308640e+00 -2.920502e+00 -5.918225e-01
      vertex   2.525712e+00 -1.938209e+00 -1.008241e+00
    endloop
  endfacet
  facet normal -4.352095e-01  5.785531e-01 -6.898325e-01
    outer loop
      vertex  -2.226629e+00  2.229989e+00 -9.994681e-01
      vertex  -3.203802e+00  2.221464e+00 -3.901276e-01
      vertex  -9.373478e-01  3.556642e+00 -7.002185e-01
    endloop
  endfacet
  facet normal -6.922004e-01 -7.082338e-01 -1.387932e-01
    outer loop
      vertex  -3.185022e+00 -2.291345e+00  3.187580e-01
      vertex  -2.649226e+00 -2.648489e+00 -5.309698e-01
      vertex  -1.889264e+00 -3.496608e+00  6.669516e-03
    endloop
  endfacet
  facet normal -4.395782e-01 -5.741947e-01  6.907035e-01
    outer loop
      vertex  -2.603533e+00 -1.943062e+00  9.783635e-01
      vertex  -3.185022e+00 -2.291345e+00  3.187580e-01
      vertex  -1.274546e+00 -2.918180e+00  1.013525e+00
    endloop
  endfacet
  facet normal -7.036009e-01  7.045138e-01  9.276856e-02
    outer loop
      vertex  -3.203802e+00  2.221464e+00 -3.901276e-01
      vertex  -3.032205e+00  2.267741e+00  5.599031e-01
      vertex  -1.850130e+00  3.517765e+00  3.224377e-02
    endloop
  endfacet
endsolid vcg
